<?xml version="1.0" encoding="utf-8"?>
<!-- Generator: Adobe Illustrator 16.0.0, SVG Export Plug-In . SVG Version: 6.00 Build 0)  -->
<!DOCTYPE svg PUBLIC "-//W3C//DTD SVG 1.1//EN" "http://www.w3.org/Graphics/SVG/1.1/DTD/svg11.dtd">
<svg version="1.1" id="Layer_1" xmlns="http://www.w3.org/2000/svg" xmlns:xlink="http://www.w3.org/1999/xlink" x="0px" y="0px"
	 width="512px" height="512px" viewBox="0 0 512 512" enable-background="new 0 0 512 512" xml:space="preserve">
<path fill="#010101" d="M511.897,470.34c-0.18-7.281-4.967-14.916-12.011-15.932c-7.137-1.027-7.307-4.779-6.854-10.032
	c0.158-1.813,0.048-3.674-0.144-5.49c-0.771-7.345-7.146-14.11-14.463-15.097c-3.284-0.442-6.647-0.278-9.969-0.488
	c-4.772-0.301-11.146,2.117-13.864-0.988c-2.345-2.68-0.645-8.9-0.73-13.556c-0.008-0.333,0.005-0.666-0.008-0.999
	c-0.255-7.421-4.023-12.749-11.186-14.679c-2.374-0.64-2.735-1.438-2.732-3.553c0.051-48.827,0.046-97.653,0.012-146.48
	c-0.001-1.999,0.171-2.962,2.647-3.616c7.373-1.952,11.108-7.326,11.252-15.102c0.069-3.832,0.181-7.675-0.042-11.496
	c-0.162-2.817,0.727-3.734,3.603-3.671c6.155,0.133,12.346,0.213,18.475-0.274c7.552-0.6,12.675-6.364,12.994-13.906
	c0.099-2.33,0.029-4.666,0.03-6.999c0.003-8.249,0-8.249,8.184-8.349c9.658-0.118,14.271-4.667,14.508-14.355
	c0.057-2.332-0.109-4.673,0.03-6.998c0.45-7.479-2.729-12.298-9.461-15.912c-55.419-29.75-110.703-59.75-166.039-89.655
	c-1.448-0.782-2.957-1.573-4.537-1.962c-3.877-0.956-6.863,0.428-8.666,4.024c-1.76,3.514-0.733,6.525,2.133,8.877
	c1.521,1.248,3.34,2.158,5.086,3.104c54.001,29.232,107.979,58.508,162.086,87.545c3.829,2.054,4.431,4.617,3.796,7.968
	c-0.747,3.947-4.139,1.814-6.114,1.815c-156.313,0.125-312.625,0.115-468.937,0.113c-5.283,0-5.898-0.876-5.2-5.978
	c0.332-2.427,2.217-2.72,3.724-3.511c78.888-41.416,157.803-82.78,236.65-124.275c2.759-1.452,4.619-1.298,7.184,0.136
	c10.14,5.667,20.412,11.096,30.629,16.628c3.739,2.025,7.276,2.294,10.379-1.15c3.536-3.925,2.209-9.265-3.283-12.308
	c-10.164-5.63-20.547-10.875-30.588-16.713c-7.375-4.29-14.089-4.006-21.568-0.042c-43.25,22.919-86.636,45.583-129.978,68.329
	c-36.433,19.12-72.861,38.249-109.313,57.333c-4.251,2.226-8.146,4.62-8.753,9.976c-0.763,5.302-0.14,10.634-0.343,15.95
	c0.172,6.879,2.593,10.001,9.124,11.822c2.432,0.678,4.921,0.911,7.421,0.874c3.203-0.047,4.471,1.527,4.424,4.606
	c-0.043,2.831-0.081,5.666,0.061,8.495c0.474,9.454,6.925,15.715,16.362,15.874c4.664,0.078,9.328,0.039,13.992,0.027
	c3.103-0.008,4.572,1.331,4.569,4.491c-0.003,3.496-0.117,7,0.117,10.491c0.406,6.067,2.924,11.239,8.407,13.859
	c4.586,2.191,5.592,5.237,5.566,9.868c-0.152,28.484-0.079,56.969-0.072,85.453c0,2.164-0.136,4.346,0.332,6.476
	c0.904,4.124,4.461,7.051,8.531,7.104c4.088,0.054,7.703-2.756,8.725-6.866c0.569-2.286,0.417-4.637,0.418-6.967
	c0.009-26.485-0.083-52.972,0.039-79.457c0.071-15.456-2.271-13.296,13.507-13.447c7.334-0.07,7.435,0.107,7.437,7.608
	c0.006,39.312,0.005,78.625,0.001,117.936c0,6.495-0.029,12.991,0.004,19.488c0.016,3.275-1.25,4.966-4.697,4.911
	c-3.829-0.063-7.663-0.071-11.492,0.005c-3.39,0.067-4.801-1.486-4.793-4.819c0.009-3.995,0.254-8.007-0.199-11.985
	c-0.565-4.97-4.378-8.574-8.833-8.558c-4.495,0.015-8.226,3.584-8.794,8.596c-0.395,3.48-0.291,6.997-0.151,10.484
	c0.148,3.707-0.966,6.167-4.605,7.871c-6.121,2.866-8.967,8.189-9.354,14.847c-0.184,3.16-0.168,6.333-0.06,9.492
	c0.124,3.599-1.396,5.146-5.022,5.084c-5.162-0.088-10.327,0.003-15.491-0.006c-4.776-0.009-8.638,1.896-12.138,5.032
	c-5.18,4.639-6.791,10.532-6.326,17.148c0.306,4.359-0.884,7.151-5.547,8.536C5.274,454.934,0.895,459.438,0,466.722
	c0,7.666,0,15.331,0,22.997c2.836,6.549,8.019,8.376,14.849,8.372c160.812-0.099,321.624-0.075,482.435-0.08
	c1.166,0,2.335,0.005,3.494-0.091c6.967-0.577,10.976-4.669,11.134-11.583C512.034,481.007,512.029,475.67,511.897,470.34z
	 M44.073,193.963c-4.623,0.01-6.342-0.775-6.052-5.826c0.487-8.484,0.13-8.505,8.75-8.505c140.283,0,280.564,0.024,420.849-0.106
	c4.786-0.004,6.667,0.75,6.313,6.079c-0.547,8.223-0.144,8.25-8.512,8.25c-69.809,0-139.616,0-209.424,0
	C185.356,193.855,114.715,193.808,44.073,193.963z M400.951,265.08c0-7.16,0.174-14.328-0.08-21.48
	c-0.113-3.193,0.931-3.939,3.941-3.8c5.316,0.246,10.672,0.328,15.977-0.02c3.735-0.244,4.254,1.23,4.235,4.517
	c-0.133,23.979-0.072,47.961-0.072,71.941c0,23.981-0.101,47.962,0.104,71.94c0.032,3.871-1.083,4.788-4.716,4.544
	c-4.807-0.326-9.687-0.43-14.473,0.021c-4.436,0.419-5.022-1.329-5.008-5.263C401.007,346.681,400.951,305.881,400.951,265.08z
	 M412.818,224.77c-7.322,0-14.647-0.128-21.965,0.065c-2.872,0.076-3.577-0.854-3.622-3.645
	c-0.191-11.97-0.288-11.968,11.824-11.968c11.647,0,23.297,0.099,34.944-0.063c3.239-0.046,4.676,0.487,4.646,4.258
	c-0.091,11.352,0.088,11.353-11.351,11.353C422.47,224.77,417.645,224.771,412.818,224.77z M398.743,407.714c4.83,0,9.66,0,14.488,0
	c7.327,0,14.657,0.104,21.98-0.056c2.604-0.056,3.322,0.73,3.405,3.352c0.381,12.313,0.471,12.31-12.011,12.31
	c-11.657,0-23.314-0.077-34.97,0.054c-2.984,0.033-4.425-0.376-4.435-3.979C387.173,407.714,387.004,407.714,398.743,407.714z
	 M372.076,420.211c0.083,2.366-0.644,3.221-3.091,3.153c-5.656-0.157-11.324-0.154-16.981-0.003
	c-2.503,0.066-3.114-0.929-3.029-3.229c0.148-3.991,0.078-7.991,0.031-11.987c-0.093-7.77-3.345-12.75-10.618-14.954
	c-2.597-0.786-2.897-1.885-2.896-4.08c0.038-48.617,0.042-97.234-0.012-145.853c-0.003-2.331,0.564-3.218,3.033-3.96
	c6.957-2.09,10.373-7.197,10.486-14.562c0.062-3.995,0.204-8.003-0.045-11.983c-0.185-2.96,0.964-3.671,3.697-3.576
	c5.155,0.178,10.327,0.213,15.479-0.011c2.966-0.13,4.229,0.573,3.969,3.806c-0.292,3.64-0.103,7.321-0.061,10.984
	c0.093,7.921,3.7,13.489,10.868,15.356c2.918,0.761,3.039,2.005,3.033,4.345c-0.062,24.31-0.038,48.617-0.038,72.927
	c0,23.809-0.043,47.618,0.056,71.427c0.013,2.896-0.191,4.538-3.657,5.46c-6.396,1.7-9.996,7.02-10.227,13.758
	C371.926,411.551,371.924,415.887,372.076,420.211z M320.085,355.527c0,11.163-0.145,22.327,0.09,33.483
	c0.07,3.371-1.24,3.792-4.06,3.688c-5.156-0.195-10.344-0.303-15.486,0.026c-3.683,0.236-4.342-1.175-4.323-4.523
	c0.133-24.156,0.071-48.312,0.071-72.468c0-23.822,0.066-47.646-0.075-71.468c-0.02-3.421,0.786-4.711,4.388-4.475
	c4.812,0.316,9.692,0.432,14.479-0.024c4.487-0.427,5.019,1.413,5.003,5.311C320.026,281.894,320.085,318.71,320.085,355.527z
	 M330.037,407.626c3.396-0.066,4.025,1.037,4.008,4.159c-0.067,11.533,0.048,11.533-11.611,11.533c-4.653,0-9.308,0-13.961,0
	c-7.313,0-14.627-0.091-21.939,0.048c-2.635,0.051-3.73-0.474-3.797-3.494c-0.261-12.161-0.383-12.157,11.901-12.157
	C306.438,407.715,318.24,407.856,330.037,407.626z M322.753,224.77c-4.815,0-9.632,0-14.447,0c-7.475,0-14.948-0.082-22.42,0.048
	c-2.316,0.04-3.034-0.559-3.136-3.002c-0.527-12.596-0.611-12.592,12.066-12.592c11.79,0,23.585,0.111,35.373-0.074
	c3.103-0.049,3.851,0.849,3.861,3.895C334.094,224.77,334.215,224.77,322.753,224.77z M278.624,393.084
	c-7.597,2.244-10.896,7.014-11.232,15.149c-0.166,3.992-0.145,8,0,11.995c0.088,2.426-0.847,3.18-3.198,3.126
	c-5.496-0.127-10.998-0.132-16.493,0.002c-2.407,0.057-3.182-0.814-3.155-3.177c0.053-4.825,0.069-9.669-0.311-14.471
	c-0.497-6.285-4.052-10.742-10.04-12.253c-3.519-0.889-3.337-2.692-3.333-5.247c0.042-24.161,0.025-48.32,0.025-72.479
	c0-23.66,0.053-47.319-0.065-70.979c-0.015-3.095,0.4-4.814,3.864-5.863c6.943-2.104,9.651-7.679,9.87-14.586
	c0.126-3.995,0.144-8.001-0.007-11.994c-0.091-2.441,0.864-3.17,3.201-3.118c5.496,0.124,10.998,0.128,16.494-0.001
	c2.394-0.057,3.197,0.789,3.155,3.167c-0.084,4.659-0.095,9.334,0.219,13.978c0.456,6.726,4.271,11.228,10.591,12.978
	c2.663,0.737,2.876,1.823,2.875,3.988c-0.035,48.652-0.029,97.306-0.024,145.958C281.059,391.061,281.215,392.318,278.624,393.084z
	 M215.566,325.142c0,20.991-0.105,41.982,0.095,62.972c0.037,3.838-1.065,4.858-4.76,4.611c-4.975-0.333-10.001-0.289-14.984-0.01
	c-3.283,0.185-4.155-0.834-4.136-4.115c0.141-24.155,0.076-48.312,0.076-72.468c0-23.989,0.076-47.979-0.083-71.967
	c-0.024-3.514,0.9-4.6,4.408-4.374c4.811,0.309,9.676,0.334,14.483-0.003c3.896-0.275,5.024,0.89,4.997,4.89
	C215.477,271.497,215.566,298.319,215.566,325.142z M203.457,407.715c7.479,0,14.961,0.118,22.436-0.063
	c2.68-0.066,3.24,0.802,3.296,3.356c0.27,12.313,0.355,12.311-11.872,12.311c-11.799,0-23.601-0.082-35.4,0.06
	c-2.861,0.034-4.021-0.438-4.04-3.729c-0.073-11.935-0.22-11.934,11.618-11.934C194.15,407.715,198.804,407.715,203.457,407.715z
	 M217.724,224.77c-4.816,0-9.632,0-14.448,0c-7.141,0-14.286-0.124-21.422,0.061c-2.844,0.075-3.981-0.375-3.981-3.68
	c0.002-11.928-0.155-11.928,11.716-11.928c11.958,0,23.915,0.07,35.872-0.052c2.698-0.027,3.686,0.58,3.743,3.536
	C229.433,224.772,229.549,224.77,217.724,224.77z M162.018,422.55c-2.739,2.544-8.262,0.688-12.559,0.734
	c-9.547,0.1-9.545,0.031-9.549-9.555c0-2.331,0.142-4.676-0.058-6.99c-0.566-6.563-3.765-11.462-10.197-13.284
	c-3.011-0.853-3.681-2.042-3.676-4.936c0.086-48.118,0.073-96.236,0.032-144.353c-0.003-2.625,0.053-4.227,3.475-5.063
	c6.404-1.565,10.111-6.979,10.375-13.643c0.165-4.156,0.264-8.339-0.021-12.481c-0.221-3.216,0.983-3.949,3.962-3.816
	c5.151,0.229,10.324,0.188,15.48,0.013c2.717-0.092,3.885,0.593,3.708,3.566c-0.247,4.147-0.116,8.322-0.031,12.483
	c0.141,6.849,3.454,11.94,10.031,13.803c3.308,0.937,3.475,2.554,3.468,5.221c-0.059,24.141-0.035,48.283-0.035,72.426
	c0,23.809-0.077,47.618,0.091,71.426c0.023,3.174-0.785,4.508-3.843,5.506c-6.34,2.07-9.518,6.882-9.719,13.531
	c-0.031,0.997,0.034,2-0.036,2.995C162.621,414.389,164.789,419.976,162.018,422.55z M98.763,224.77
	c-7.323,0-14.646-0.091-21.965,0.05c-2.508,0.049-3.384-0.565-3.477-3.277c-0.418-12.324-0.518-12.321,11.973-12.321
	c11.814,0,23.631,0.091,35.444-0.063c3.02-0.04,3.951,0.794,3.982,3.904c0.118,11.708,0.24,11.707-11.48,11.707
	C108.414,224.77,103.588,224.771,98.763,224.77z M85.056,407.714c11.99,0,23.981,0.08,35.969-0.062
	c2.784-0.033,3.644,0.688,3.692,3.58c0.203,12.088,0.311,12.087-11.737,12.087c-4.663,0-9.325,0-13.988,0
	c-7.327,0-14.657-0.116-21.98,0.059c-2.868,0.067-3.617-0.901-3.684-3.705C73.044,407.711,72.949,407.714,85.056,407.714z
	 M33.936,447.517c0.261-1.452,0.069-2.991,0.037-4.49c-0.068-3.162,1.474-4.578,4.606-4.398c1.162,0.067,2.332,0.01,3.497,0.01
	c142.591,0,285.181-0.006,427.773,0.054c2.497,0.001,5.837-1.413,7.335,1.529c1.855,3.65,0.59,7.834,0.669,11.782
	c0.02,0.985-1.163,0.935-1.989,0.935c-1.166,0-2.331,0.005-3.498,0.005c-72.128,0-144.257,0-216.384,0
	c-72.128,0-144.257-0.036-216.384,0.093C35.282,453.044,33.079,452.285,33.936,447.517z M496.786,481.953
	c0.005,0.923-1.252,0.835-2.072,0.835c-1.166,0.002-2.332,0.005-3.497,0.005c-78.457,0-156.913,0-235.367,0
	c-78.455,0-156.911-0.047-235.366,0.117c-4.657,0.01-6.174-1.285-5.496-5.702c0.225-1.465,0.039-2.993,0.037-4.491
	c-0.003-2.808,1.227-4.372,4.203-4.251c1.165,0.048,2.332,0.002,3.498,0.002c155.578,0,311.156-0.006,466.734,0.053
	c2.301,0,5.415-1.294,6.728,1.617C497.869,473.87,496.766,478,496.786,481.953z"/>
</svg>
