<?xml version="1.0" encoding="utf-8"?>
<!-- Generator: Adobe Illustrator 16.0.0, SVG Export Plug-In . SVG Version: 6.00 Build 0)  -->
<!DOCTYPE svg PUBLIC "-//W3C//DTD SVG 1.1//EN" "http://www.w3.org/Graphics/SVG/1.1/DTD/svg11.dtd">
<svg version="1.1" id="Layer_1" xmlns="http://www.w3.org/2000/svg" xmlns:xlink="http://www.w3.org/1999/xlink" x="0px" y="0px"
	 width="642.403px" height="184.797px" viewBox="68.794 157.603 642.403 184.797"
	 enable-background="new 68.794 157.603 642.403 184.797" xml:space="preserve">
<path fill="#2BA6DF" d="M114.26,257.95c-4.8,0.6-13.203,2.399-18.004,6.6c-14.403,12.599-6.001,34.798,23.406,34.798
	c16.803,0,33.606-10.8,46.81-27.6c-19.204-8.999-34.808-15.6-52.212-13.8V257.95L114.26,257.95z"/>
<path fill="#2BA6DF" d="M221.83,273.4c27.006,9,33.007,9.6,33.007,9.6v-95.998c0-16.2-13.203-29.399-30.006-29.399H98.801
	c-16.204,0-30.007,13.2-30.007,29.4v126c0,16.199,13.203,29.397,30.007,29.397h126.03c16.203,0,30.006-13.199,30.006-29.399v-1.199
	c0,0-48.01-19.799-72.616-31.799c-16.203,19.799-37.208,32.399-59.413,32.399c-37.208,0-49.811-32.399-31.807-53.398
	c3.6-4.801,10.202-9,20.403-11.4c15.604-3.6,40.811,2.4,64.216,10.199c4.199-7.799,7.801-16.199,10.201-25.199h-72.615v-7.2h37.208
	v-14.4h-45.61v-7.2h45.61v-18.598c0,0,0-3,3-3h18.005v22.2h45.01v6.6h-45.01v13.2h36.607c-3.6,14.399-9.002,27.599-15.604,38.999
	c12.003,4.199,22.205,7.8,29.407,10.197V273.4z"/>
<path fill="#3F3A39" d="M340.49,201.22l39.608,85.797h-21.005l-10.803-22.801h-32.407l-10.803,22.801h-13.803l40.209-83.398
	c0,0,1.199-2.4,3.601-2.4h5.401L340.49,201.22L340.49,201.22z M319.484,256.418h25.206l-12.603-27L319.484,256.418z
	 M406.932,287.699h-19.204v-81.598c0-2.4,1.2-3.6,4.2-3.6h15.004V287.699z M442.939,287.141h-19.203v-61.798
	c0-2.4,1.199-3.6,4.199-3.6h15.004V287.141z M466.422,223.025h12.604v6c2.4-1.8,4.801-3.6,7.801-4.2c3.002-1.2,6.002-1.8,10.203-1.8
	c4.199,0,7.801,0.6,10.803,2.4c3.601,1.8,6,3.6,8.4,6.6s4.201,6,5.402,9.6c1.198,3.6,1.799,7.2,1.799,11.398
	c0,5.399-0.6,10.201-2.398,14.4c-1.801,4.199-3.602,8.399-6.602,11.399c-3.002,3-6.002,5.999-10.203,7.8
	c-4.201,1.799-8.402,2.398-13.203,2.398h-6.602c-1.799,0-3.601-0.601-5.4-1.199v21.6H459.82v-78.597
	C459.221,223.025,462.221,223.025,466.422,223.025L466.422,223.025z M479.025,269.823c0,1.801,0,3,0.6,4.2
	c0.601,1.199,1.201,2.398,2.4,3.601c1.199,1.199,2.4,1.799,3.603,2.399c1.198,0.601,3,0.601,4.801,0.601
	c1.799,0,3-0.601,4.801-1.801c1.199-1.199,3-2.4,3.602-4.8c0.601-2.399,1.8-4.2,2.398-7.2c0.602-2.999,1.201-5.399,1.201-8.999
	c0-4.201,0-7.8-0.601-10.8c-0.602-3-1.2-5.4-2.399-7.8c-1.201-1.8-2.4-3.6-3.601-4.8c-1.2-1.2-3.002-1.8-4.803-1.8
	c-1.199,0-2.4,0-3.6,0.6c-1.201,0.6-2.4,1.2-3.002,1.8c-1.199,0.6-1.8,1.8-3,2.4c-1.201,1.2-1.802,1.8-2.4,3V269.823
	L479.025,269.823L479.025,269.823z M560.053,223.025c4.801,0,8.401,0.6,12.002,1.2c3,0.6,6.002,1.8,8.401,3.6
	c2.4,1.8,3.601,3.6,4.802,5.4c1.198,2.4,1.801,4.8,1.801,7.2v47.398h-19.205v-4.8c-1.199,1.199-2.398,1.8-3,2.398l-3.602,1.801
	c-1.199,0.601-2.4,1.199-4.199,1.199c-1.801,0.602-3.603,0.602-5.402,0.602c-3,0-5.399-0.602-7.803-1.2
	c-2.398-0.601-4.199-1.8-6-3.601c-1.801-1.199-3.002-3-3.602-5.399c-0.601-1.8-1.199-4.199-1.199-6.601c0-2.4,0.6-4.801,1.199-6.6
	c0.6-1.801,2.399-3.602,3.602-5.4c1.199-1.8,3.6-3,5.4-4.199c2.399-1.2,4.2-2.4,7.202-3.601c2.398-1.198,4.8-1.799,7.802-3
	c2.399-0.6,5.399-1.8,7.801-2.4l2.4-0.6v-6.6c0-1.8,0-3.6-0.601-5.4l-1.801-3.6c-0.6-0.6-1.799-1.8-2.398-1.8
	c-1.2-0.6-2.399-0.6-3.602-0.6c0,0-10.203,0-19.205,7.8l-4.201-6.6C534.848,230.824,545.65,223.025,560.053,223.025L560.053,223.025
	z M566.652,254.824c-1.799,0.6-3.6,1.801-5.397,3l-5.402,3.6c-1.801,1.201-3,2.4-3.6,4.2c-1.201,1.2-1.201,3-1.201,4.2
	c0,1.199,0,2.4,0.6,3.601c0.6,1.199,0.6,1.8,1.199,3c0.602,1.199,1.201,1.199,1.801,1.8s1.201,0.601,2.4,0.601
	c1.801,0,3.002-0.601,4.801-1.2l5.402-3.6v-19.2L566.652,254.824L566.652,254.824z M613.206,308.822h-12.604l-0.6-11.399
	c0,0,15.604,0.601,20.403-5.399c1.801-2.4,3-9,3-9l-31.205-59.998h21.004l19.806,39l17.403-39h13.804l-31.808,70.799
	C631.211,296.225,626.409,308.823,613.206,308.822L613.206,308.822z"/>
<ellipse fill="#2BA6DF" cx="433.4" cy="204.1" rx="9.603" ry="8.5"/>
<path fill="#3F3A39" d="M683.68,172.91h-6.603v-1.2h14.402v1.2h-6.6v18.599h-1.802V172.91H683.68z M694.396,171.709h2.4l4.2,11.4
	l1.802,4.2c0.6-1.2,1.198-3,1.799-4.2l4.201-11.4h2.399v20.4H708.8v-18l-1.802,4.8l-4.2,12H701.6l-4.201-12l-1.801-4.8v18h-1.801
	v-20.4H694.396z"/>
</svg>
