<?xml version="1.0" encoding="utf-8"?>
<!-- Generator: Adobe Illustrator 16.0.0, SVG Export Plug-In . SVG Version: 6.00 Build 0)  -->
<!DOCTYPE svg PUBLIC "-//W3C//DTD SVG 1.1//EN" "http://www.w3.org/Graphics/SVG/1.1/DTD/svg11.dtd">
<svg version="1.1" id="Layer_1" xmlns="http://www.w3.org/2000/svg" xmlns:xlink="http://www.w3.org/1999/xlink" x="0px" y="0px"
	 width="512px" height="328.205px" viewBox="0 91.897 512 328.205" enable-background="new 0 91.897 512 328.205"
	 xml:space="preserve">
<path fill="#F37421" d="M475.438,91.897H36.562c-19.889,0-36.037,16.147-36.037,36.037v256.131c0,19.89,16.148,36.037,36.037,36.037
	h438.941c19.89,0,36.037-16.147,36.037-36.037V127.935C511.475,108.045,495.327,91.897,475.438,91.897z"/>
<g>
	<polygon fill="#FFFFFF" points="65.641,183.729 65.641,298.602 91.7,298.602 91.7,250.552 134.498,250.552 134.498,298.602 
		160.427,298.602 160.427,183.729 134.498,183.729 134.498,227.906 91.7,227.906 91.7,183.729 	"/>
	<path fill="#FFFFFF" d="M384.787,265.189c0.328-1.903,0.854-5.775,0.854-10.24c0-20.611-10.24-41.616-37.153-41.616
		c-28.947,0-42.075,23.368-42.075,44.504c0,26.06,16.213,42.47,44.504,42.47c11.225,0,21.662-1.706,30.195-5.12l-3.413-17.525
		c-6.958,2.231-14.179,3.412-23.04,3.412c-12.078,0-22.646-5.119-23.5-15.818h53.629V265.189z M330.896,247.467
		c0.657-6.958,5.12-16.87,16.017-16.87c11.947,0,14.639,10.568,14.639,16.87H330.896L330.896,247.467z"/>
	<path fill="#FFFFFF" d="M393.911,298.602h25.929v-42.273c0-2.035,0.196-4.07,0.524-5.776c1.707-8.008,8.205-13.128,17.724-13.128
		c2.888,0,5.12,0.328,6.958,0.656v-24.353c-1.904-0.328-3.085-0.328-5.448-0.328c-8.009,0-18.248,5.12-22.515,17.198h-0.657
		l-0.853-15.36h-22.318c0.328,7.155,0.656,15.163,0.656,27.438V298.602L393.911,298.602z"/>
	<path fill="#FFE700" d="M186.748,179.134c7.353,0,13.325,5.974,13.325,13.325c0,7.352-5.973,13.325-13.325,13.325
		c-7.352,0-13.324-5.973-13.324-13.325C173.424,185.108,179.397,179.134,186.748,179.134L186.748,179.134z"/>
	<path fill="#FFFFFF" d="M241.493,279.172h12.997c13.063,0,18.97-8.337,18.97-17.067c0-8.73-0.656-28.422-16.738-28.422
		c-18.511,0-15.557,24.484-15.426,37.285C241.231,273.723,241.428,276.48,241.493,279.172L241.493,279.172z M173.424,215.171h26.649
		v46.999c0,8.73,4.857,17.066,15.558,17.066c0.065-21.136,0-42.929-0.723-64.065h22.253c0.459,4.07,0.919,8.139,1.313,12.209
		c10.503-21.005,43.651-16.41,54.811,1.378c11.486,18.314,15.425,70.827-38.794,70.827h-12.604
		c0.132,10.634,0.132,21.333,0.132,32.033h-26.65c0-10.24,0.065-21.006,0.131-32.033c-28.816-0.131-42.075-18.38-42.075-37.416
		V215.171L173.424,215.171z"/>
</g>
</svg>
