<?xml version="1.0" encoding="utf-8"?>
<!-- Generator: Adobe Illustrator 16.0.0, SVG Export Plug-In . SVG Version: 6.00 Build 0)  -->
<!DOCTYPE svg PUBLIC "-//W3C//DTD SVG 1.1//EN" "http://www.w3.org/Graphics/SVG/1.1/DTD/svg11.dtd">
<svg version="1.1" id="Layer_1" xmlns="http://www.w3.org/2000/svg" xmlns:xlink="http://www.w3.org/1999/xlink" x="0px" y="0px"
	 width="780px" height="500px" viewBox="0 0 780 500" enable-background="new 0 0 780 500" xml:space="preserve">
<path fill="#FFFFFF" d="M724.331,0H55.668C25.403,0,0.779,24.624,0.779,54.89v390.219c0,30.267,24.624,54.891,54.89,54.891h668.663
	c30.265,0,54.89-24.624,54.89-54.891V54.89C779.221,24.624,754.596,0,724.331,0z"/>
<path fill="#B3131B" d="M333.672,398.893l-285.958,0.104v-0.688c0-0.378,0.457-2.833,1.014-5.454
	c0.558-2.621,1.424-6.791,1.927-9.265c0.501-2.474,1.359-6.679,1.905-9.345c1.344-6.515,2.671-13.033,3.981-19.554
	c0.516-2.571,1.375-6.776,1.912-9.345c0.685-3.285,1.361-6.574,2.032-9.863c0.581-2.854,1.465-7.217,1.964-9.691
	c0.499-2.476,1.291-6.291,1.761-8.479c0.47-2.189,1.069-5.148,1.331-6.577c0.262-1.427,1.111-5.634,1.887-9.345
	c0.653-3.11,1.287-6.225,1.901-9.344c0.271-1.428,1.13-5.634,1.91-9.344c0.779-3.711,1.636-7.916,1.903-9.345
	c0.268-1.427,1.129-5.633,1.913-9.345c0.786-3.713,1.635-7.838,1.884-9.17c0.252-1.333,0.938-4.759,1.527-7.614
	c0.588-2.855,1.701-8.229,2.474-11.94c0.773-3.713,2.096-10.176,2.937-14.365c0.844-4.187,1.851-9.17,2.238-11.074
	c1.141-5.597,2.292-11.192,3.454-16.784c0.573-2.763,1.504-7.278,2.07-10.039c0.566-2.76,1.438-7.043,1.938-9.517
	c0.5-2.474,1.354-6.601,1.896-9.171c0.543-2.569,1.478-7.087,2.076-10.037c0.599-2.951,1.602-7.467,2.229-10.037
	c0.627-2.57,1.513-5.685,1.97-6.921c0.456-1.239,1.717-3.919,2.801-5.961l1.971-3.709l1.792-2.348
	c0.983-1.289,2.743-3.328,3.908-4.53c1.164-1.202,3.128-3.01,4.367-4.018c1.236-1.009,3.027-2.37,3.979-3.025
	c0.952-0.655,2.821-1.801,4.154-2.548c1.332-0.747,3.202-1.724,4.153-2.172c0.952-0.448,2.899-1.267,4.326-1.819
	c1.428-0.551,4.152-1.476,6.056-2.054c1.903-0.579,5.478-1.451,7.941-1.937c2.464-0.487,6.356-1.138,8.652-1.446l4.173-0.561
	l286.138-0.107l286.138-0.111v0.688c0,0.378-0.459,2.833-1.019,5.453c-0.708,3.316-1.402,6.635-2.084,9.957
	c-0.587,2.855-1.438,6.983-1.897,9.172c-0.648,3.114-1.292,6.229-1.929,9.344c-0.604,2.951-1.529,7.468-2.06,10.037
	c-0.529,2.57-1.389,6.776-1.908,9.345c-0.519,2.571-1.383,6.775-1.919,9.344c-0.625,2.998-1.241,5.998-1.851,9
	c-0.479,2.379-1.35,6.662-1.932,9.517c-0.583,2.854-1.519,7.372-2.079,10.037s-1.415,6.792-1.898,9.172
	c-0.483,2.379-1.353,6.662-1.934,9.516c-0.581,2.855-1.514,7.374-2.075,10.039c-0.561,2.665-1.395,6.714-1.857,8.998
	c-1.28,6.346-2.569,12.693-3.866,19.036c-0.469,2.284-1.304,6.333-1.855,8.999c-0.708,3.4-1.408,6.804-2.104,10.209
	c-0.604,2.951-1.468,7.154-1.919,9.346c-0.453,2.188-1.299,6.314-1.881,9.169c-0.683,3.348-1.368,6.692-2.06,10.037
	c-0.55,2.665-1.412,6.871-1.917,9.347c-0.503,2.474-1.38,6.758-1.946,9.516c-0.566,2.761-1.494,7.276-2.058,10.037
	c-0.564,2.76-1.411,6.889-1.881,9.172c-0.641,3.113-1.275,6.229-1.908,9.344c-0.682,3.336-1.381,6.67-2.098,9.999l-1.042,4.808
	l-1.242,3.325c-0.683,1.829-1.709,4.261-2.282,5.403c-0.569,1.142-1.734,3.156-2.587,4.479c-0.853,1.318-2.04,3.012-2.639,3.759
	c-0.6,0.747-2.402,2.678-4.01,4.29l-2.917,2.93l-2.809,1.996c-1.545,1.099-3.211,2.215-3.697,2.48
	c-0.489,0.268-2.351,1.219-4.138,2.111c-1.786,0.895-4.309,2.033-5.606,2.529c-1.297,0.498-3.867,1.343-5.71,1.879
	c-1.844,0.538-3.819,1.066-4.39,1.177c-0.572,0.108-2.554,0.519-4.405,0.912c-1.852,0.392-5.59,0.978-8.306,1.3l-4.939,0.59
	l-285.958,0.1H333.672z M231.936,324.926h7.441l0.21-0.549c0.116-0.301,0.21-1.009,0.21-1.572c0-0.564,0.246-2.614,0.546-4.557
	c0.3-1.943,1.002-6.414,1.563-9.935c0.56-3.522,1.397-8.817,1.863-11.768c0.441-2.794,0.862-5.593,1.262-8.394
	c0.229-1.665,0.508-3.027,0.62-3.027s0.593,0.735,1.069,1.636l0.864,1.636l1.918,1.934l1.919,1.934l2.361,0.945l2.362,0.945
	l2.814,0.365l2.815,0.363l3.571-0.219l3.573-0.22l3.868-1l3.869-1.003l2.076-0.946c1.143-0.521,3.167-1.659,4.499-2.526l2.423-1.578
	l2.259-2.258c1.242-1.24,2.995-3.231,3.894-4.426c0.899-1.189,1.636-2.253,1.636-2.359c0-0.105,0.441-0.844,0.981-1.641
	c0.54-0.795,1.644-3.006,2.454-4.908c0.812-1.902,2.077-5.328,2.815-7.613l1.341-4.154l0.694-3.596
	c0.381-1.979,0.872-5.25,1.091-7.269l0.396-3.67l-0.229-3.115l-0.229-3.115l-0.724-3.115l-0.722-3.115l-1.169-2.332l-1.169-2.333
	l-2.258-2.393l-2.258-2.393l-2.672-1.381l-2.672-1.38l-2.941-0.706l-2.942-0.704l-2.942-0.215l-2.941-0.217l-3.276,0.376
	l-3.278,0.377l-2.674,0.684l-2.674,0.683l-2.325,1.076c-1.277,0.591-3.138,1.596-4.131,2.231c-0.995,0.638-2.022,1.368-2.282,1.627
	c-0.258,0.258-0.88,0.738-1.379,1.063l-0.909,0.596l0.635-3.041c0.351-1.672,0.642-3.233,0.649-3.473l0.015-0.432h-12.691
	l-1.111,7.008c-0.613,3.855-1.579,9.813-2.147,13.24c-1.255,7.559-2.524,15.115-3.809,22.668c-0.566,3.331-1.501,8.627-2.079,11.768
	c-0.577,3.141-1.423,7.736-1.88,10.211c-0.456,2.475-1.316,7.146-1.909,10.381c-0.7,3.809-1.406,7.616-2.12,11.422
	c-0.676,3.578-1.366,7.154-2.069,10.729c-0.567,2.854-1.114,5.543-1.219,5.969l-0.188,0.779h7.441V324.926L231.936,324.926z
	 M263.972,284.91l-2.889,0.175l-1.889-0.335l-1.89-0.334l-1.918-0.875l-1.919-0.877l-1.339-1.279l-1.341-1.277l-0.773-1.731
	c-0.426-0.952-0.972-2.569-1.215-3.595l-0.44-1.861l0.177-2.982l0.177-2.981l0.892-4.674c0.673-3.571,1.325-7.148,1.956-10.729
	c0.586-3.331,1.475-8.212,1.972-10.847l0.905-4.791l1.984-1.65c1.092-0.906,2.82-2.125,3.843-2.704l1.855-1.054l2.423-0.75
	l2.423-0.75l3.115-0.184l3.114-0.183l2.537,0.541l2.536,0.54l1.79,0.824l1.789,0.824l1.501,1.509l1.502,1.509l0.809,1.599
	c0.446,0.879,1.072,2.599,1.391,3.823l0.58,2.224l-0.178,6.577l-0.178,6.577l-0.889,3.888c-0.489,2.137-1.419,5.408-2.067,7.266
	l-1.179,3.383l-1.445,2.736c-0.794,1.506-2.019,3.54-2.722,4.52c-0.702,0.98-1.823,2.254-2.49,2.824
	c-0.807,0.688-1.634,1.35-2.479,1.988l-1.269,0.946l-2.938,0.999l-2.937,0.999L263.972,284.91L263.972,284.91z M335.839,294.426
	l3.808,0.043l3.805-0.348c2.097-0.189,5.521-0.588,7.614-0.885c2.096-0.294,5.713-0.955,8.04-1.466l4.23-0.931l0.212-1.562
	c0.114-0.856,0.591-3.41,1.056-5.673l0.845-4.117l-0.188-0.186l-0.187-0.188l-1.293,0.625c-0.712,0.343-2.929,1.163-4.925,1.82
	l-3.63,1.195l-3.811,0.739l-3.811,0.737l-6.056,0.014l-6.058,0.01l-2.076-0.662c-1.142-0.364-2.821-1.031-3.732-1.482l-1.656-0.82
	l-1.366-1.234l-1.367-1.235l-1.066-1.863l-1.067-1.865l-0.669-2.337l-0.668-2.34l-0.004-4.327l-0.005-4.327l0.593-3.859l0.596-3.861
	l5.207-0.244l5.208-0.243l19.252,0.125l19.252,0.122l0.581-2.465c0.32-1.356,0.809-4.159,1.087-6.229l0.505-3.765l0.011-3.166
	l0.012-3.167l-0.548-2.363l-0.55-2.364l-0.906-1.563c-0.497-0.86-1.377-2.108-1.951-2.772c-0.575-0.664-1.602-1.601-2.281-2.08
	c-0.682-0.479-2.016-1.287-2.968-1.793l-1.729-0.92l-3.023-0.729l-3.023-0.728l-3.724-0.356l-3.727-0.355l-3.46,0.226l-3.462,0.225
	l-4.153,0.798l-4.152,0.798l-2.598,1.037c-1.428,0.569-3.607,1.612-4.844,2.313c-1.237,0.702-2.95,1.843-3.806,2.536
	c-0.858,0.695-2.342,2.045-3.297,3c-0.956,0.955-2.371,2.671-3.142,3.813c-0.772,1.144-1.956,3.168-2.633,4.499
	c-0.675,1.333-1.555,3.203-1.954,4.154c-0.398,0.951-1.127,2.898-1.614,4.325c-0.489,1.429-1.258,4.154-1.705,6.058
	c-0.529,2.306-0.986,4.628-1.371,6.963l-0.553,3.503l0.006,5.15l0.007,5.148l0.524,2.25c0.289,1.238,0.844,3.107,1.229,4.154
	c0.386,1.047,1.102,2.604,1.59,3.461s1.529,2.234,2.313,3.064c0.783,0.828,2.206,2.088,3.157,2.795
	c0.95,0.708,2.646,1.706,3.764,2.215l2.035,0.927l2.837,0.687c1.561,0.377,3.916,0.824,5.234,0.994
	C330.953,294.242,333.745,294.402,335.839,294.426L335.839,294.426z M342.357,245.67c-9.58,0-17.42-0.068-17.42-0.153
	c0-0.083,0.409-1.291,0.909-2.683c0.499-1.391,1.377-3.461,1.949-4.6l1.043-2.073l2.288-2.276l2.29-2.278l2.25-1.075
	c1.236-0.592,2.872-1.235,3.634-1.432c0.763-0.195,2.941-0.455,4.845-0.576l3.462-0.223l2.658,0.342l2.657,0.341l1.932,0.884
	l1.933,0.885l1.06,1.143c0.582,0.627,1.275,1.554,1.543,2.055l0.482,0.914l0.319,2.029l0.32,2.027l-0.366,3.374l-0.365,3.376
	h-17.423V245.67L342.357,245.67z M445.9,294.428l3.81,0.041l4.323-0.513c2.379-0.281,5.544-0.749,7.036-1.039
	c1.803-0.362,3.592-0.787,5.364-1.272c1.459-0.413,2.779-0.859,2.934-0.99c0.154-0.133,0.565-1.703,0.916-3.49
	c0.35-1.787,0.79-4.184,0.979-5.326c0.188-1.143,0.286-2.139,0.217-2.213c-0.07-0.075-0.324,0.021-0.566,0.213
	c-0.243,0.193-1.94,0.908-3.773,1.59l-3.333,1.236l-4.746,0.92l-4.747,0.919l-4.033-0.137l-4.035-0.138l-2.293-0.797l-2.292-0.795
	l-1.771-1.548l-1.77-1.55l-1.176-2.141l-1.175-2.139l-0.561-2.863l-0.56-2.861l0.005-3.714l0.003-3.714l0.68-4.498l0.681-4.502
	l0.72-2.423c0.395-1.333,0.844-2.889,0.995-3.46c0.151-0.572,0.785-2.207,1.41-3.636c0.623-1.427,1.737-3.634,2.474-4.902
	l1.339-2.307l1.646-1.706l1.645-1.706l1.741-1.08l1.744-1.081l2.237-0.69c1.23-0.378,3.406-0.871,4.833-1.092l2.597-0.405
	l3.806,0.191l3.808,0.19l4.499,0.9l4.5,0.899l1.829,0.684c1.006,0.375,1.873,0.684,1.928,0.684s0.296-1.285,0.536-2.856
	c0.241-1.569,0.671-4.154,0.954-5.741c0.284-1.589,0.448-2.956,0.363-3.039c-0.083-0.083-1.435-0.298-3.004-0.478
	c-1.57-0.177-5.836-0.495-9.479-0.706l-6.626-0.38l-4.674,0.357l-4.672,0.359l-3.462,0.727l-3.461,0.728l-2.229,0.891
	c-1.227,0.49-3.021,1.375-3.99,1.967c-0.929,0.565-1.842,1.154-2.739,1.767c-0.539,0.381-2.172,1.866-3.631,3.302l-2.649,2.608
	l-1.481,2.167c-0.813,1.193-2.221,3.679-3.128,5.525l-1.648,3.357l-1.265,3.633c-0.694,1.999-1.666,5.27-2.155,7.269l-0.894,3.634
	l-0.324,3.289l-0.323,3.289l0.003,4.324l0.004,4.326l0.326,2.517l0.326,2.517l1.037,2.59l1.036,2.588l1.198,1.871l1.196,1.872
	l1.902,1.874l1.905,1.873l2.014,1.066l2.016,1.063l2.645,0.735c1.454,0.403,3.557,0.868,4.673,1.03
	c1.115,0.162,3.74,0.315,5.836,0.338H445.9V294.428z M502.83,294.299l4.672-0.135l2.941-0.752l2.942-0.754l1.904-0.898
	c1.047-0.494,2.76-1.473,3.806-2.172c1.048-0.699,2.669-2.027,3.602-2.953s2.317-2.505,3.076-3.51
	c0.758-1.006,1.425-1.781,1.479-1.725c0.058,0.056-0.117,1.654-0.388,3.555c-0.269,1.901-0.492,4.43-0.496,5.619l-0.006,2.162
	h12.703l0.193-4.93l0.193-4.932l0.906-6.404c0.499-3.521,1.305-8.739,1.791-11.594c0.484-2.854,1.328-7.682,1.875-10.729
	c0.546-3.047,1.411-7.796,1.921-10.557l0.931-5.017l0.032-4.335l0.029-4.335l-0.979-2.003l-0.98-2.004l-1.328-1.275l-1.33-1.277
	l-2.181-1.104l-2.184-1.106l-3.253-0.725l-3.252-0.725l-4.478-0.339l-4.478-0.341l-5.767,0.357c-3.175,0.196-7.637,0.583-9.922,0.86
	l-4.153,0.504l-2.83,0.011l-2.831,0.011l-0.412,1.991c-0.227,1.094-0.855,3.693-1.397,5.778c-0.544,2.084-0.937,3.839-0.876,3.9
	c0.062,0.061,1.575-0.283,3.363-0.764c1.789-0.482,5.59-1.272,8.445-1.76l5.19-0.884l4.673-0.192l4.673-0.192l3.01,0.528
	l3.011,0.527l2.009,0.991l2.009,0.992l1.125,1.677l1.125,1.677l-0.016,2.642l-0.017,2.644l-0.598,2.899l-0.597,2.901l-12.454,0.045
	l-12.453,0.044l-4.074,1.118c-2.242,0.615-4.724,1.431-5.517,1.813c-0.792,0.384-1.585,0.697-1.761,0.697s-1.51,0.738-2.964,1.643
	l-2.643,1.643l-2.081,2.077c-1.146,1.144-2.607,2.856-3.25,3.809c-0.644,0.951-1.688,2.938-2.32,4.418l-1.151,2.688l-0.528,3.022
	l-0.529,3.021v6.343l0.504,2.641l0.507,2.641l0.936,1.722c0.516,0.945,1.463,2.334,2.102,3.082l1.166,1.361l2.068,1.258l2.07,1.259
	l2.37,0.669c1.304,0.368,3.286,0.814,4.408,0.994l2.038,0.32l4.673-0.135h-0.001V294.299z M507.156,284.619l-2.769,0.146
	l-1.834-0.469c-1.008-0.256-2.539-0.828-3.4-1.271l-1.566-0.806l-0.855-1.017c-0.471-0.562-1.188-1.658-1.598-2.441l-0.741-1.426
	l-0.145-3.326l-0.146-3.327l0.587-2.019c0.322-1.108,1.079-3.036,1.684-4.279l1.096-2.264l2.1-2.082l2.098-2.084l2.228-1.072
	l2.227-1.071l2.769-0.659l2.769-0.658h17.306l0.548,0.228l0.547,0.226l-0.46,2.717c-0.254,1.494-0.857,4.195-1.345,6.004
	c-0.484,1.809-1.341,4.467-1.902,5.906c-0.562,1.441-1.021,2.717-1.021,2.831c0,0.116-0.569,1.165-1.265,2.333l-1.265,2.123
	l-2.075,2.057c-1.141,1.13-2.201,2.055-2.354,2.055c-0.153,0-0.853,0.392-1.556,0.867l-1.274,0.863l-2.807,0.89l-2.807,0.888
	L507.156,284.619L507.156,284.619z M619.811,294.422l3.288,0.042l3.115-0.506c1.714-0.277,3.894-0.726,4.846-0.995
	c0.951-0.271,2.665-0.968,3.806-1.553l2.077-1.064l1.786-1.572l1.786-1.572l1.882-2.508c1.035-1.381,1.973-2.743,2.082-3.029
	l0.2-0.521l-0.174,1.731c-0.124,1.158-0.284,2.312-0.479,3.461c-0.169,0.951-0.406,2.781-0.532,4.066l-0.229,2.335h13.579v-4.671
	l1.034-8.826c0.567-4.855,1.41-11.316,1.869-14.363s1.169-7.406,1.577-9.69c0.404-2.284,1.127-6.413,1.601-9.171
	c0.475-2.76,1.331-7.589,1.904-10.729c0.571-3.142,1.489-8.126,2.037-11.075c0.547-2.951,1.397-7.547,1.891-10.21
	s1.374-7.338,1.96-10.382c0.614-3.177,1.248-6.35,1.902-9.518c0.461-2.188,0.838-4.097,0.837-4.239v-0.261h-14.814l-0.219,2.164
	c-0.12,1.189-0.688,5.122-1.26,8.739c-0.68,4.271-1.371,8.539-2.076,12.805c-0.41,2.461-0.815,4.922-1.217,7.384l-0.186,1.152
	l-0.584-0.248c-0.321-0.137-2.065-0.621-3.872-1.075l-3.288-0.825l-4.499-0.352l-4.501-0.35l-3.807,0.354l-3.806,0.355l-3.461,0.875
	l-3.462,0.874l-3.287,1.604l-3.289,1.604l-2.424,1.792l-2.422,1.793l-2.093,2.246c-1.15,1.232-2.813,3.274-3.694,4.534l-1.601,2.292
	l-1.883,3.914c-1.034,2.154-2.293,5.005-2.797,6.337c-0.506,1.333-1.394,4.287-1.978,6.564l-1.059,4.142l-0.522,5.377l-0.521,5.377
	l0.392,4.325l0.394,4.327l0.462,1.557c0.257,0.856,0.793,2.383,1.194,3.391l0.73,1.836l1.332,1.803l1.333,1.805l1.521,1.245
	l1.52,1.247l2.077,1.031c1.144,0.564,3.058,1.299,4.259,1.628c1.197,0.328,3.145,0.724,4.326,0.876
	C615.558,294.256,618.002,294.4,619.811,294.422L619.811,294.422z M625.712,284.605l-2.613,0.137l-1.763-0.316
	c-0.97-0.176-2.522-0.645-3.45-1.041l-1.686-0.723l-1.419-1.163l-1.418-1.161l-1.055-2.02l-1.055-2.018l-0.48-2.25l-0.479-2.25
	l0.041-4.5l0.04-4.498l0.559-3.981l0.558-3.979l0.867-2.768c0.479-1.522,0.871-2.96,0.873-3.194
	c0.004-0.231,0.473-1.477,1.047-2.767c0.67-1.492,1.379-2.967,2.125-4.422c0.599-1.143,1.714-2.922,2.479-3.957
	c0.768-1.033,2.134-2.591,3.036-3.462c0.902-0.867,2.336-2.01,3.189-2.534l1.549-0.953l2.722-0.941l2.722-0.942l5.71-0.003h5.711
	l3.287,0.913c1.81,0.501,3.729,1.083,4.268,1.292l0.979,0.381l-0.19,0.949c-0.104,0.523-0.518,2.819-0.915,5.103
	c-0.396,2.284-1.182,6.646-1.741,9.691s-1.42,7.641-1.912,10.21c-0.491,2.568-1.202,5.84-1.582,7.266
	c-0.389,1.468-0.784,2.933-1.187,4.395c-0.274,0.989-0.928,2.704-1.451,3.808c-0.523,1.104-1.441,2.71-2.038,3.565
	c-0.598,0.855-1.604,2.045-2.241,2.637c-0.638,0.596-2.016,1.649-3.062,2.345l-1.903,1.267l-2.752,0.873l-2.751,0.873
	L625.712,284.605L625.712,284.605z M116.351,292.737h8.408l0.604-3.72c0.331-2.047,0.979-5.979,1.439-8.739l1.903-11.421
	c0.587-3.521,1.468-8.74,1.955-11.594c0.488-2.855,1.265-7.285,1.724-9.841c0.46-2.56,0.925-4.741,1.03-4.847l0.194-0.193h45.223
	l0.252,0.251l0.251,0.251l-0.393,1.998c-0.215,1.1-0.853,4.489-1.417,7.536c-0.563,3.046-1.512,8.185-2.107,11.423
	c-0.626,3.404-1.263,6.807-1.91,10.208c-0.457,2.38-1.381,7.362-2.054,11.075c-0.672,3.711-1.221,6.943-1.219,7.182l0.004,0.432
	h16.888l0.373-2.161c0.206-1.19,0.536-3.331,0.735-4.76c0.197-1.429,0.678-4.467,1.063-6.749c0.387-2.283,1.158-6.802,1.716-10.037
	c0.557-3.236,1.491-8.766,2.074-12.287c0.583-3.522,1.447-8.662,1.922-11.421c0.601-3.465,1.227-6.926,1.876-10.382
	c0.559-2.951,1.488-7.935,2.067-11.077c0.578-3.14,1.444-7.889,1.925-10.556c0.481-2.665,1.357-7.493,1.948-10.729
	c0.591-3.236,1.336-7.011,1.656-8.394l0.583-2.509h-17.099l-0.232,1.645c-0.127,0.902-0.54,3.434-0.917,5.624
	c-0.379,2.188-1.063,6.082-1.524,8.651c-0.461,2.571-1.303,7.476-1.872,10.903c-0.558,3.356-1.095,6.716-1.61,10.08l-0.577,3.848
	l-12.55,0.254l-12.551,0.253l-10.512-0.25c-5.781-0.137-10.544-0.276-10.583-0.309c-0.039-0.034,0.157-1.378,0.437-2.989
	c0.368-2.077,0.761-4.148,1.177-6.216c0.531-2.651,1.047-5.305,1.547-7.962c0.484-2.569,1.031-5.76,1.218-7.094
	c0.186-1.331,0.576-3.552,0.866-4.932c0.29-1.379,0.842-4.286,1.225-6.459c0.382-2.174,0.79-4.199,0.907-4.499l0.21-0.55h-16.962
	l-0.542,3.029c-0.299,1.666-0.697,4.04-0.885,5.277c-0.188,1.237-0.82,5.208-1.404,8.826c-0.584,3.617-1.446,8.99-1.916,11.94
	l-1.899,11.94c-0.668,4.16-1.372,8.313-2.111,12.459c-0.616,3.405-1.244,6.808-1.884,10.209c-0.45,2.381-1.307,6.896-1.906,10.038
	c-0.627,3.291-1.275,6.579-1.94,9.864c-0.47,2.283-0.987,4.932-1.151,5.883c-0.165,0.951-0.7,3.697-1.191,6.102
	c-0.49,2.402-0.892,4.621-0.892,4.931v0.562L116.351,292.737L116.351,292.737L116.351,292.737z M209.444,292.737h7.443l0.21-0.547
	c0.116-0.302,0.211-1.092,0.211-1.755c0-0.664,0.469-4.117,1.039-7.672c1.307-8.102,2.646-16.197,4.017-24.289
	c0.588-3.41,1.205-6.813,1.855-10.21c0.551-2.854,1.396-7.294,1.88-9.862c0.482-2.57,1.432-7.459,2.109-10.866
	c0.678-3.405,1.316-6.329,1.42-6.495l0.188-0.305l-7.528,0.093l-7.528,0.093l-0.628,4.501c-0.344,2.474-1.098,7.381-1.675,10.901
	c-0.576,3.521-1.448,8.896-1.938,11.94c-0.593,3.641-1.226,7.275-1.896,10.903c-0.554,2.949-1.401,7.466-1.886,10.035
	c-0.483,2.571-1.351,7.088-1.927,10.039c-0.577,2.95-1.351,6.844-1.72,8.652c-0.37,1.809-0.767,3.639-0.883,4.066l-0.208,0.777
	L209.444,292.737L209.444,292.737L209.444,292.737z M383.555,292.737h7.388l0.223-3.126c0.123-1.719,0.54-5.186,0.93-7.701
	c0.389-2.516,1.187-7.533,1.771-11.148c0.738-4.471,1.542-8.932,2.413-13.379c0.744-3.741,1.583-7.459,1.867-8.263
	c0.283-0.803,0.516-1.674,0.516-1.934c0-0.262,0.556-1.684,1.234-3.159c0.679-1.476,1.943-3.735,2.812-5.022l1.578-2.339l2.11-1.956
	l2.112-1.954l2.603-1.243l2.604-1.245l3.981,0.021l3.978,0.021l1.957,0.583c1.076,0.322,2.05,0.585,2.163,0.585
	s0.206-0.367,0.206-0.817c0-0.448,0.391-2.728,0.866-5.065c0.476-2.336,0.865-4.346,0.865-4.467c0-0.121-1.129-0.563-2.51-0.982
	c-1.38-0.419-3.288-0.858-4.239-0.977l-1.73-0.214l-2.249,0.397c-1.238,0.219-3.077,0.701-4.088,1.074
	c-1.014,0.372-2.683,1.214-3.713,1.873c-1.028,0.659-2.631,1.942-3.557,2.852c-0.93,0.91-2.49,2.746-3.471,4.078
	c-0.762,1.035-1.521,2.074-2.275,3.115l-0.495,0.692l0.301-1.384c0.166-0.763,0.627-3.254,1.024-5.538
	c0.396-2.285,0.807-4.427,0.905-4.758l0.187-0.607h-13.2v0.835c0,0.458-0.39,3.223-0.864,6.142c-0.477,2.922-1.263,7.8-1.744,10.847
	c-0.483,3.046-1.343,8.34-1.906,11.768c-0.603,3.638-1.237,7.273-1.907,10.902c-1.303,6.928-2.635,13.85-3.997,20.766
	c-0.583,2.951-1.28,6.435-1.549,7.744c-0.271,1.309-0.49,2.515-0.49,2.682v0.304H383.555L383.555,292.737z M558.964,292.737h7.555
	v-4.624l0.869-5.734c0.48-3.153,1.27-8.149,1.758-11.099c0.485-2.951,1.093-6.688,1.347-8.308c0.256-1.616,0.932-5.12,1.5-7.785
	c0.572-2.666,1.284-5.547,1.584-6.403c0.302-0.856,0.548-1.756,0.551-1.998c0.005-0.242,0.648-1.796,1.433-3.455l1.426-3.016
	l1.884-2.501l1.881-2.499l2.058-1.548c1.132-0.853,2.953-1.98,4.048-2.511l1.987-0.963l4.325,0.029l4.326,0.031l1.704,0.546
	l1.702,0.548l0.288-0.179l0.286-0.178l0.017-1.104c0.008-0.607,0.378-2.868,0.821-5.023l0.811-3.918l-0.91-0.355
	c-0.872-0.322-1.752-0.623-2.641-0.9l-1.729-0.546l-3.114,0.009l-3.115,0.008l-2.539,0.894l-2.539,0.892l-1.905,1.15l-1.905,1.149
	l-2.479,2.596l-2.478,2.596l-1.332,2.014c-0.731,1.107-1.376,1.964-1.432,1.903c-0.057-0.061,0.342-2.368,0.884-5.128
	c0.542-2.761,0.993-5.37,1.001-5.798l0.016-0.779H564.1v0.222c0,0.121-0.318,2.341-0.71,4.931c-0.39,2.593-1.175,7.593-1.74,11.115
	c-0.681,4.212-1.37,8.423-2.067,12.633c-0.607,3.638-1.245,7.273-1.912,10.902c-0.479,2.568-1.333,7.087-1.896,10.037
	c-0.563,2.951-1.487,7.701-2.054,10.557l-1.67,8.392l-0.64,3.2L558.964,292.737L558.964,292.737z M224.084,208.283l2.1,0.008
	l1.671-0.569l1.671-0.569l1.479-1.5l1.479-1.499l0.778-1.999l0.779-1.998l0.026-2.942l0.028-2.94l-0.691-1.148l-0.693-1.149
	l-1.204-0.745l-1.206-0.747h-5.203l-1.771,0.793l-1.771,0.792l-1.028,1.102l-1.027,1.102l-0.809,1.904l-0.808,1.902l-0.152,2.965
	l-0.151,2.965l0.75,1.475l0.753,1.473l1.45,0.659l1.45,0.658L224.084,208.283L224.084,208.283z"/>
</svg>
