<?xml version="1.0" encoding="utf-8"?>
<!-- Generator: Adobe Illustrator 16.0.0, SVG Export Plug-In . SVG Version: 6.00 Build 0)  -->
<!DOCTYPE svg PUBLIC "-//W3C//DTD SVG 1.1//EN" "http://www.w3.org/Graphics/SVG/1.1/DTD/svg11.dtd">
<svg version="1.1" id="Layer_1" xmlns="http://www.w3.org/2000/svg" xmlns:xlink="http://www.w3.org/1999/xlink" x="0px" y="0px"
	 width="512px" height="328.205px" viewBox="0 91.897 512 328.205" enable-background="new 0 91.897 512 328.205"
	 xml:space="preserve">
<path fill="#FFFFFF" d="M26.256,91.897h459.487c14.507,0,26.257,11.75,26.257,26.256v275.692c0,14.508-11.75,26.257-26.257,26.257
	H26.256C11.749,420.103,0,408.354,0,393.846V118.154C0,103.647,11.749,91.897,26.256,91.897z"/>
<g id="Page-1">
	<g id="Artboard" transform="translate(-91.000000, -154.000000)">
		<g id="Group" transform="translate(91.000000, 154.000000)">
			<path id="Combined-Shape" fill="#37A72E" d="M357.153,249.764v70.892h39.385v-42.01h44.636
				c18.773-0.132,34.724-12.145,40.763-28.882H357.153z"/>
			
				<linearGradient id="Combined-Shape_4_" gradientUnits="userSpaceOnUse" x1="363.2151" y1="240.2417" x2="364.2151" y2="240.2417" gradientTransform="matrix(132.4395 0 0 51.8564 -47752.1289 -12240.7852)">
				<stop  offset="0" style="stop-color:#00A0E5"/>
				<stop  offset="1" style="stop-color:#0077C3"/>
			</linearGradient>
			<path id="Combined-Shape_1_" fill="url(#Combined-Shape_4_)" d="M351.902,191.344c2.297,28.948,29.735,51.856,63.212,51.856
				c0.131,0,68.464,0,68.464,0c0.524-2.626,0.787-5.383,0.787-8.205c0-24.025-19.363-43.455-43.322-43.651H351.902z"/>
			<path id="Combined-Shape_2_" fill="#37A72E" d="M293.613,242.478v-0.066V242.478c0.459-0.788,1.182-1.247,2.101-1.247
				c1.313,0,2.297,1.05,2.362,2.297l0,0V320h39.385V191.344h-39.385c-4.988,0.197-10.634,3.807-12.734,8.336l-31.311,67.216
				c-0.065,0.263-0.196,0.525-0.328,0.787l0,0l0,0c-0.459,0.657-1.247,1.116-2.166,1.116c-1.444,0-2.626-1.181-2.626-2.626v-74.83
				h-39.384V320h39.384l0,0c4.924-0.263,10.438-3.873,12.538-8.336l32.164-68.989C293.547,242.609,293.613,242.543,293.613,242.478
				L293.613,242.478z"/>
			<path id="Combined-Shape_3_" fill="#37A72E" d="M146.576,244.71L123.536,320H95.18l-22.975-75.356
				c-0.197-1.182-1.247-2.101-2.561-2.101c-1.443,0-2.56,1.182-2.56,2.56l0,0v74.831H27.7V191.278h33.806h10.043
				c7.22,0,14.835,5.645,16.935,12.538l19.168,62.687c0.984,3.151,2.494,3.086,3.479,0l19.167-62.687
				c2.101-6.958,9.715-12.538,16.936-12.538h10.043h33.806v128.657h-39.385v-74.831c0,0,0,0,0-0.065c0-1.444-1.182-2.56-2.561-2.56
				C147.823,242.543,146.774,243.462,146.576,244.71L146.576,244.71z"/>
		</g>
	</g>
</g>
</svg>
