<?xml version="1.0" encoding="utf-8"?>
<!-- Generator: Adobe Illustrator 16.0.0, SVG Export Plug-In . SVG Version: 6.00 Build 0)  -->
<!DOCTYPE svg PUBLIC "-//W3C//DTD SVG 1.1//EN" "http://www.w3.org/Graphics/SVG/1.1/DTD/svg11.dtd">
<svg version="1.1" id="Layer_1" xmlns="http://www.w3.org/2000/svg" xmlns:xlink="http://www.w3.org/1999/xlink" x="0px" y="0px"
	 width="74px" height="22px" viewBox="0 0 74 22" enable-background="new 0 0 74 22" xml:space="preserve">
<path fill="#F07A25" d="M67.117,11.988l-3.113,2.896L63.9,14.807c0.355-1.326,0.711-2.645,1.072-3.963
	c0.903-3.282,1.807-6.558,2.717-9.84c0-0.012,0-0.024,0-0.03c0-0.163,0.084-0.313,0.229-0.392c0.217-0.036,0.211,0.211,0.289,0.35
	c0.463,0.855,0.813,1.764,1.354,2.577c0.513,1.241,1.108,2.475,1.753,3.649c0.078,0.121,0.126,0.259,0.126,0.404
	c0,0.247-0.126,0.481-0.337,0.614C69.748,9.434,68.436,10.717,67.117,11.988L67.117,11.988z"/>
<path fill="#0C8D48" d="M67.117,11.988c1.324-1.271,2.637-2.554,3.98-3.807c0.211-0.132,0.337-0.367,0.337-0.614
	c0-0.145-0.042-0.283-0.126-0.403c-0.65-1.174-1.241-2.409-1.753-3.649l0.927-3.114c0.387,0.741,0.705,1.349,1.012,1.963
	c0.777,1.548,1.536,3.107,2.344,4.643C73.945,7.158,74,7.338,74,7.525c0,0.307-0.156,0.596-0.422,0.759
	c-2.203,2.042-4.365,4.131-6.539,6.202c-0.139,0.182-0.326,0.32-0.543,0.393C66.773,13.933,66.984,12.963,67.117,11.988
	L67.117,11.988L67.117,11.988z"/>
<path fill="#66686C" d="M0.735,17.732h0.584l-0.542,2.265c-0.078,0.337-0.066,0.591,0.048,0.759c0.108,0.168,0.319,0.253,0.62,0.253
	s0.542-0.085,0.735-0.253c0.192-0.168,0.331-0.422,0.409-0.759l0.542-2.265h0.59l-0.554,2.318c-0.12,0.506-0.337,0.88-0.644,1.133
	s-0.717,0.373-1.217,0.373c-0.5,0-0.843-0.127-1.03-0.373c-0.187-0.247-0.217-0.627-0.096-1.133L0.735,17.732L0.735,17.732z"/>
<path fill="#66686C" d="M30.4,6.272c1.674,0,3.348-0.03,5.022,0.018c0.036,0,0.072,0.006,0.108,0.006
	c0.421,0,0.765-0.325,0.795-0.741c0.391-1.494,0.813-2.981,1.18-4.48c0.012-0.386,0.325-0.687,0.705-0.687
	c0.054,0,0.102,0.006,0.156,0.018c0.277,0.018,0.554,0.03,0.837,0.03c0.271,0,0.548-0.012,0.819-0.03
	c0.445-0.024,0.548,0.108,0.422,0.548c-0.633,2.24-1.235,4.493-1.85,6.733c-0.59,2.162-1.192,4.324-1.764,6.492
	c-0.012,0.451-0.379,0.813-0.831,0.813c-0.066,0-0.133-0.006-0.199-0.023c-0.277-0.024-0.554-0.036-0.831-0.036
	c-0.253,0-0.506,0.012-0.759,0.03c-0.428,0.018-0.494-0.121-0.379-0.524c0.458-1.565,0.867-3.137,1.319-4.709
	c0.132-0.458,0.072-0.645-0.47-0.639c-3.409,0.024-6.823,0.024-10.232,0.006c-0.036-0.006-0.072-0.006-0.108-0.006
	c-0.373,0-0.68,0.289-0.698,0.663c-0.397,1.578-0.861,3.143-1.277,4.715c-0.024,0.283-0.265,0.506-0.554,0.506
	c-0.036,0-0.072-0.006-0.108-0.012c-0.289-0.019-0.59-0.024-0.879-0.024c-0.301,0-0.603,0.013-0.897,0.03
	c-0.62,0.042-0.518-0.277-0.41-0.662c0.668-2.428,1.337-4.86,2-7.287c0.56-2.042,1.12-4.083,1.668-6.125
	c0.018-0.277,0.247-0.494,0.524-0.494c0.024,0,0.054,0,0.079,0.006c0.632,0.03,1.271,0.03,1.903,0
	c0.439-0.018,0.488,0.145,0.379,0.53c-0.452,1.608-0.867,3.228-1.331,4.836c-0.126,0.427-0.018,0.512,0.386,0.506
	C26.883,6.261,28.641,6.272,30.4,6.272L30.4,6.272z"/>
<path fill="#66686C" d="M43.961,0.455c0.211,0,0.422,0,0.633,0c0.844,0,0.85,0,0.633,0.777c-1.181,4.276-2.361,8.558-3.547,12.833
	c-0.266,0.958-0.277,0.958-1.26,0.958c-0.463,0-0.933-0.013-1.396,0.006c-0.416,0.018-0.5-0.121-0.385-0.53
	c1.125-4.011,2.233-8.028,3.342-12.044c0.139-0.421,0.253-0.849,0.337-1.283c0-0.012,0-0.018,0-0.03
	c0-0.403,0.325-0.723,0.729-0.723c0.072,0,0.15,0.012,0.217,0.036c0.126,0.012,0.258,0.012,0.391,0.012
	C43.751,0.461,43.859,0.461,43.961,0.455L43.961,0.455L43.961,0.455z"/>
<path fill="#66686C" d="M60.27,8.272c-0.488,0.434-0.976,0.855-1.451,1.295c-1.824,1.68-3.638,3.361-5.456,5.046
	c-0.302,0.283-0.458,0.331-0.692-0.084c-1.344-2.355-2.711-4.691-4.071-7.034c-0.042-0.06-0.097-0.121-0.15-0.168
	c-0.205,0.259-0.337,0.578-0.368,0.909c-0.571,2.036-1.125,4.077-1.668,6.125c-0.012,0.349-0.295,0.626-0.645,0.626
	c-0.041,0-0.084-0.006-0.126-0.012c-0.608-0.049-1.229-0.018-1.843-0.006c-0.283,0.006-0.439-0.036-0.337-0.397
	c1.276-4.607,2.548-9.22,3.812-13.833c0.03-0.048,0.066-0.096,0.109-0.139c0.246,0.223,0.445,0.494,0.584,0.795
	c1.722,2.867,3.438,5.733,5.154,8.606c0.386,0.644,0.373,0.632,0.951,0.138c3.107-2.649,6.215-5.299,9.335-7.937
	c0.626-0.53,1.247-1.066,1.927-1.644c0.012,0.072,0.018,0.15,0.018,0.229c0,0.235-0.06,0.47-0.168,0.674
	c-1.18,4.33-2.379,8.654-3.553,12.984c-0.019,0.307-0.277,0.547-0.584,0.547c-0.037,0-0.072-0.006-0.104-0.012
	c-0.301-0.018-0.607-0.023-0.908-0.023c-0.289,0-0.584,0.006-0.873,0.023c-0.506,0.03-0.549-0.156-0.422-0.596
	c0.535-1.891,1.047-3.794,1.565-5.691c0.03-0.054,0.048-0.114,0.048-0.174C60.354,8.417,60.324,8.332,60.27,8.272L60.27,8.272
	L60.27,8.272z"/>
<polygon fill="#66686C" points="70.977,21.461 71.868,17.732 73.897,17.732 73.771,18.244 72.332,18.244 72.109,19.178 
	73.549,19.178 73.422,19.708 71.982,19.708 71.693,20.912 73.133,20.912 73.006,21.455 70.977,21.455 "/>
<path fill="#66686C" d="M70.923,18.637c-0.133-0.145-0.283-0.254-0.452-0.326c-0.168-0.072-0.355-0.107-0.56-0.107
	c-0.397,0-0.753,0.132-1.065,0.391c-0.314,0.266-0.519,0.603-0.615,1.018c-0.096,0.404-0.054,0.734,0.127,0.994
	c0.181,0.259,0.451,0.391,0.824,0.391c0.217,0,0.428-0.035,0.645-0.119c0.211-0.079,0.428-0.199,0.645-0.355l-0.162,0.686
	c-0.188,0.121-0.379,0.205-0.584,0.266c-0.199,0.061-0.41,0.084-0.627,0.084c-0.277,0-0.523-0.048-0.734-0.139
	c-0.211-0.09-0.385-0.229-0.523-0.415c-0.133-0.175-0.223-0.386-0.26-0.626c-0.035-0.241-0.023-0.5,0.043-0.777
	c0.066-0.271,0.174-0.529,0.324-0.771c0.15-0.24,0.344-0.451,0.566-0.632s0.464-0.325,0.723-0.415
	c0.253-0.097,0.518-0.139,0.789-0.139c0.217,0,0.41,0.029,0.59,0.096c0.182,0.066,0.344,0.163,0.494,0.289L70.923,18.637
	L70.923,18.637z"/>
<path fill="#66686C" d="M66.25,17.582l-2.687,3.879h0.62l0.65-0.958h1.439l0.181,0.958h0.626L66.25,17.582z M65.172,19.997
	l0.572-0.849c0.035-0.061,0.078-0.121,0.113-0.193c0.043-0.072,0.079-0.15,0.121-0.229c0,0.084,0.006,0.162,0.012,0.234
	s0.019,0.133,0.024,0.188l0.169,0.849H65.172z"/>
<polygon fill="#66686C" points="61.57,21.461 62.461,17.732 64.491,17.732 64.371,18.244 62.932,18.244 62.709,19.172 
	64.148,19.172 64.021,19.702 62.582,19.702 62.16,21.455 61.57,21.455 "/>
<path fill="#66686C" d="M61.443,18.763c0.037-0.169,0.043-0.325,0.019-0.47s-0.085-0.26-0.175-0.35
	c-0.072-0.078-0.174-0.133-0.301-0.162c-0.121-0.03-0.307-0.049-0.549-0.049h-0.824l-0.892,3.729h0.554l0.398-1.668v0.006h0.06
	l0.808,1.668h0.668l-0.844-1.699c0.283-0.029,0.519-0.132,0.699-0.301C61.245,19.293,61.371,19.063,61.443,18.763z M60.83,18.811
	c-0.043,0.193-0.127,0.325-0.248,0.397c-0.119,0.079-0.336,0.114-0.65,0.114h-0.107l0.259-1.072h0.108
	c0.295,0,0.488,0.043,0.578,0.127S60.878,18.605,60.83,18.811z"/>
<polygon fill="#66686C" points="56.018,21.461 56.909,17.732 58.938,17.732 58.813,18.244 57.373,18.244 57.15,19.178 58.59,19.178 
	58.463,19.708 57.023,19.708 56.734,20.912 58.174,20.912 58.041,21.455 56.018,21.455 "/>
<polygon fill="#66686C" points="55.373,18.244 54.603,21.461 54.013,21.461 54.783,18.244 53.82,18.244 53.94,17.732 56.457,17.732 
	56.337,18.244 55.373,18.244 "/>
<path fill="#66686C" d="M49.346,21.461l0.928-3.879l1.764,2.283c0.049,0.065,0.097,0.132,0.139,0.204
	c0.049,0.072,0.096,0.157,0.145,0.247l0.62-2.584h0.548l-0.928,3.873l-1.8-2.318c-0.048-0.061-0.091-0.127-0.133-0.199
	s-0.078-0.145-0.114-0.217l-0.62,2.59H49.346L49.346,21.461z"/>
<polygon fill="#66686C" points="47.906,21.461 48.797,17.732 49.388,17.732 48.496,21.461 47.906,21.461 "/>
<path fill="#66686C" d="M43.546,20.714l0.524-0.224c0.006,0.17,0.054,0.296,0.156,0.38c0.096,0.085,0.24,0.133,0.428,0.133
	c0.174,0,0.325-0.048,0.451-0.151c0.127-0.102,0.211-0.234,0.254-0.402c0.054-0.217-0.079-0.416-0.393-0.584
	c-0.041-0.025-0.078-0.043-0.102-0.055c-0.355-0.199-0.578-0.379-0.669-0.542c-0.097-0.163-0.114-0.361-0.054-0.597
	c0.072-0.301,0.234-0.548,0.476-0.734c0.247-0.187,0.53-0.283,0.86-0.283c0.266,0,0.482,0.055,0.633,0.162
	c0.156,0.109,0.241,0.26,0.266,0.459l-0.519,0.246c-0.042-0.12-0.103-0.205-0.181-0.259c-0.072-0.054-0.168-0.078-0.277-0.078
	c-0.156,0-0.295,0.042-0.409,0.126s-0.187,0.199-0.223,0.344c-0.054,0.223,0.103,0.434,0.464,0.626
	c0.029,0.019,0.048,0.024,0.066,0.036c0.318,0.169,0.523,0.338,0.62,0.5s0.114,0.367,0.054,0.608
	c-0.084,0.354-0.259,0.632-0.523,0.843c-0.266,0.205-0.584,0.313-0.951,0.313c-0.308,0-0.549-0.072-0.711-0.217
	C43.625,21.195,43.54,20.984,43.546,20.714L43.546,20.714z"/>
<polygon fill="#66686C" points="42.932,18.244 42.161,21.461 41.57,21.461 42.342,18.244 41.378,18.244 41.498,17.732 
	44.016,17.732 43.896,18.244 42.932,18.244 "/>
<path fill="#66686C" d="M36.91,21.461l0.927-3.879l1.765,2.283c0.049,0.065,0.096,0.132,0.145,0.204s0.096,0.157,0.145,0.247
	l0.62-2.584h0.548l-0.928,3.873l-1.8-2.318c-0.048-0.061-0.097-0.127-0.133-0.199c-0.042-0.072-0.078-0.145-0.114-0.217l-0.62,2.59
	H36.91L36.91,21.461z"/>
<polygon fill="#66686C" points="34.2,21.461 35.091,17.732 37.121,17.732 37,18.244 35.561,18.244 35.338,19.178 36.777,19.178 
	36.651,19.708 35.211,19.708 34.922,20.912 36.362,20.912 36.229,21.455 34.2,21.455 "/>
<path fill="#66686C" d="M33.218,19.617c0-0.029,0.006-0.107,0.024-0.24c0.012-0.108,0.024-0.199,0.03-0.271
	c-0.036,0.084-0.079,0.169-0.126,0.254c-0.048,0.084-0.103,0.174-0.163,0.258l-1.427,1.988l-0.464-2.029
	c-0.018-0.085-0.036-0.163-0.042-0.242c-0.012-0.078-0.018-0.156-0.018-0.229c-0.018,0.078-0.048,0.156-0.079,0.247
	c-0.03,0.085-0.066,0.175-0.114,0.271l-0.831,1.838h-0.542l1.789-3.885l0.512,2.354c0.006,0.036,0.018,0.097,0.03,0.187
	c0.012,0.084,0.03,0.193,0.048,0.319c0.06-0.108,0.145-0.241,0.259-0.409c0.03-0.043,0.054-0.078,0.066-0.103l1.608-2.349
	l-0.054,3.885h-0.542L33.218,19.617L33.218,19.617z"/>
<path fill="#66686C" d="M27.587,21.461l0.41-1.705l-0.741-2.023h0.62l0.458,1.266c0.012,0.029,0.024,0.072,0.036,0.126
	c0.012,0.054,0.03,0.108,0.042,0.169c0.036-0.061,0.072-0.115,0.114-0.169c0.036-0.054,0.078-0.103,0.114-0.145l1.078-1.247h0.59
	l-1.734,2.023l-0.41,1.705H27.587L27.587,21.461z"/>
<path fill="#66686C" d="M25.913,17.582l-2.686,3.879h0.62l0.65-0.958h1.439l0.181,0.958h0.626L25.913,17.582z M24.835,19.997
	l0.572-0.849c0.036-0.061,0.072-0.121,0.115-0.193c0.042-0.072,0.078-0.15,0.12-0.229c0,0.084,0.006,0.162,0.012,0.234
	s0.018,0.133,0.024,0.188l0.169,0.849H24.835z"/>
<path fill="#66686C" d="M23.932,17.92c-0.072-0.066-0.175-0.115-0.289-0.145c-0.115-0.031-0.307-0.043-0.572-0.043H22.18
	l-0.892,3.729h0.554l0.403-1.675v-0.012h0.332c0.265,0,0.463-0.013,0.596-0.042c0.132-0.03,0.253-0.078,0.361-0.145
	c0.132-0.084,0.247-0.199,0.349-0.35s0.175-0.313,0.217-0.488c0.042-0.174,0.048-0.337,0.018-0.481S24.022,18.004,23.932,17.92z
	 M23.486,18.799c-0.048,0.187-0.132,0.313-0.259,0.385s-0.355,0.109-0.681,0.109h-0.15l0.253-1.036h0.15
	c0.313,0,0.518,0.042,0.614,0.12C23.51,18.461,23.535,18.6,23.486,18.799z"/>
<path fill="#66686C" d="M19.566,18.715c-0.048-0.254-0.157-0.471-0.325-0.633c-0.126-0.127-0.289-0.217-0.488-0.271
	c-0.199-0.054-0.554-0.078-1.072-0.078h-0.795l-0.892,3.729h0.952c0.428,0,0.747-0.024,0.963-0.078
	c0.217-0.055,0.422-0.145,0.608-0.271c0.247-0.162,0.458-0.379,0.626-0.633c0.168-0.252,0.295-0.548,0.373-0.879
	C19.596,19.269,19.614,18.973,19.566,18.715z M18.91,19.6c-0.054,0.24-0.139,0.445-0.253,0.627
	c-0.108,0.174-0.247,0.324-0.416,0.445c-0.126,0.084-0.259,0.15-0.404,0.187s-0.355,0.054-0.626,0.054h-0.494l0.626-2.631h0.434
	c0.301,0,0.524,0.018,0.656,0.054c0.139,0.036,0.241,0.097,0.325,0.187c0.108,0.121,0.175,0.271,0.199,0.451
	C18.982,19.154,18.964,19.359,18.91,19.6z"/>
<polygon fill="#66686C" points="13.291,21.461 14.182,17.732 16.211,17.732 16.091,18.244 14.652,18.244 14.429,19.178 
	15.868,19.178 15.742,19.708 14.303,19.708 14.014,20.912 15.453,20.912 15.32,21.455 13.291,21.455 "/>
<polygon fill="#66686C" points="11.852,21.461 12.743,17.732 13.333,17.732 12.442,21.461 11.852,21.461 "/>
<polygon fill="#66686C" points="9.172,21.461 10.063,17.732 12.092,17.732 11.972,18.244 10.533,18.244 10.31,19.172 11.749,19.172 
	11.623,19.702 10.184,19.702 9.762,21.455 9.172,21.455 "/>
<polygon fill="#66686C" points="7.732,21.461 8.624,17.732 9.214,17.732 8.323,21.461 7.732,21.461 "/>
<path fill="#66686C" d="M3.637,21.461l0.928-3.879l1.764,2.283c0.048,0.065,0.097,0.132,0.145,0.204
	c0.048,0.072,0.097,0.157,0.145,0.247l0.621-2.584h0.548l-0.927,3.873l-1.801-2.318c-0.048-0.061-0.09-0.127-0.132-0.199
	c-0.042-0.072-0.079-0.145-0.115-0.217l-0.62,2.59H3.637L3.637,21.461z"/>
<path fill="#66686C" d="M20.054,0.389c-0.072,0-0.145,0.012-0.217,0.024C14.712,0.401,9.581,0.407,4.457,0.395
	C4.432,0.389,4.402,0.389,4.378,0.389c-0.271,0-0.5,0.21-0.53,0.481c-1.259,4.547-2.523,9.094-3.806,13.64
	c-0.126,0.44,0.018,0.476,0.41,0.476c4.98-0.006,9.955-0.012,14.935-0.012c0.126,0.018,0.253,0.03,0.379,0.03
	c1.12,0,2.06-0.861,2.15-1.981c0.325-1.18,0.62-2.373,0.981-3.547c0.096-0.181,0.145-0.386,0.145-0.59
	c0-0.5-0.295-0.958-0.753-1.168c0.681-0.187,1.223-0.692,1.458-1.355c0.439-1.505,0.861-3.011,1.247-4.528
	c0.06-0.133,0.09-0.271,0.09-0.416C21.083,0.853,20.626,0.389,20.054,0.389z M15.459,11.193c-0.35,0.59-0.982,0.952-1.668,0.952
	c-3.162,0-6.317-0.037-9.479,0.006c-0.488,0.006-0.717-0.061-0.518-0.627c0.223-0.632,0.379-1.3,0.542-1.951
	c0.042-0.271,0.277-0.47,0.548-0.47c3.222,0,6.45,0.006,9.678,0.018C15.669,9.127,16.109,10.145,15.459,11.193z M17.32,4.713
	c-0.163,0.903-0.952,1.566-1.873,1.566c-3.204-0.006-6.414-0.006-9.624,0.012c-0.53,0-0.548-0.21-0.416-0.62
	C5.619,5.068,5.793,4.46,5.926,3.84c0.006-0.332,0.277-0.59,0.608-0.59c0.042-0.006,0.078,0,0.12,0.006
	c3.246,0.042,6.48-0.006,9.72-0.006c0.572,0,1.036,0.464,1.036,1.036C17.41,4.43,17.38,4.574,17.32,4.713z"/>
</svg>
