<?xml version="1.0" encoding="utf-8"?>
<!-- Generator: Adobe Illustrator 16.0.0, SVG Export Plug-In . SVG Version: 6.00 Build 0)  -->
<!DOCTYPE svg PUBLIC "-//W3C//DTD SVG 1.1//EN" "http://www.w3.org/Graphics/SVG/1.1/DTD/svg11.dtd">
<svg version="1.1" id="Layer_1" xmlns="http://www.w3.org/2000/svg" xmlns:xlink="http://www.w3.org/1999/xlink" x="0px" y="0px"
	 width="512px" height="512px" viewBox="0 0 512 512" enable-background="new 0 0 512 512" xml:space="preserve">
<path fill-rule="evenodd" clip-rule="evenodd" d="M0,440.886c0-78.333,0-156.667,0-235c2.479-6.457,4.36-13.229,7.569-19.299
	c5.603-10.6,14.649-17.9,25.478-23c-0.858-4.916-1.571-9.502-2.467-14.054c-6.032-30.614,12.578-59.289,43.16-65.542
	c19.703-4.029,39.584-7.186,59.393-10.695c36.345-6.44,72.692-12.864,109.043-19.273c54.195-9.556,108.441-18.83,162.572-28.74
	c32.675-5.982,60.726,11.715,67.457,44.31c4.269,20.668,7.454,41.561,11.125,62.353c7.543,42.731,15.058,85.468,22.646,128.191
	c1.885,10.605,4.01,21.167,6.024,31.749c0,5.333,0,10.667,0,16c-0.313,0.554-0.786,1.072-0.916,1.666
	c-5.021,22.98-18.841,37.694-41.583,43.652c-7.538,1.975-15.281,3.479-23.024,4.239c-4.966,0.487-5.371,2.739-5.355,6.737
	c0.088,23.497,0.412,47.006-0.169,70.489c-0.737,29.734-24.858,53.079-54.65,53.111c-110.491,0.12-220.984,0.121-331.475-0.027
	c-18.286-0.024-33.556-7.574-43.883-22.686C6.027,457.875,3.571,448.999,0,440.886z M30.054,326.009c0,1.944,0,3.417,0,4.89
	c0,33.15-0.031,66.301,0.013,99.45c0.022,16.698,10.37,27.301,27.051,27.312c108.947,0.065,217.893,0.063,326.84,0.003
	c16.758-0.009,27.074-10.544,27.083-27.199c0.017-33.15,0.009-66.301-0.005-99.451c-0.001-1.61-0.147-3.22-0.234-5.004
	C283.882,326.009,157.33,326.009,30.054,326.009z M62.796,158.99c2.667,0,4.485,0,6.304,0c104.127,0,208.253,0,312.38,0.003
	c2.332,0,4.668-0.022,6.996,0.081c28.484,1.254,51.977,24.321,52.437,52.795c0.589,36.477,0.225,72.967,0.271,109.453
	c0.002,1.931,0,3.861,0,6.399c8.081-1.484,15.534-2.364,22.711-4.279c12.116-3.233,19.572-15.409,17.512-27.719
	c-1.894-11.311-3.895-22.603-5.881-33.896c-7.487-42.556-14.972-85.112-22.489-127.663c-3.556-20.128-6.883-40.303-10.888-60.342
	c-2.657-13.299-14.563-21.316-27.804-19.175c-19.685,3.184-39.308,6.75-58.949,10.198c-40.431,7.096-80.857,14.219-121.285,21.334
	c-29.786,5.242-59.576,10.464-89.355,15.744c-21.76,3.858-43.551,7.566-65.24,11.789c-12.335,2.402-20.135,12.342-19.589,24.659
	C60.226,145.13,61.758,151.836,62.796,158.99z M30.328,257.962c0,12.567,0,24.799,0,37.316c126.942,0,253.609,0,380.461,0
	c0-12.563,0-24.809,0-37.316C283.99,257.962,157.448,257.962,30.328,257.962z M29.727,226.746c127.607,0,254.307,0,381.25,0
	c0-5.197,0.32-10.035-0.066-14.814c-0.819-10.137-8.256-19.056-18.091-21.581c-3.492-0.896-7.258-1.004-10.897-1.006
	c-107.5-0.05-214.999-0.042-322.499-0.028c-2.329,0-4.67,0.071-6.986,0.305c-10.951,1.108-19.696,8.834-21.549,19.731
	C29.949,214.873,30.101,220.577,29.727,226.746z"/>
<path fill-rule="evenodd" clip-rule="evenodd" d="M110.998,397.074c10.664,0.001,21.327-0.041,31.99,0.013
	c9.866,0.05,16.907,6.431,16.915,15.207c0.007,8.803-6.905,15.186-16.908,15.23c-21.493,0.097-42.986,0.084-64.479,0.007
	c-10.26-0.036-17.427-6.604-17.214-15.481c0.211-8.79,7.225-14.929,17.208-14.967C89.338,397.042,100.168,397.074,110.998,397.074z"
	/>
</svg>
