<svg xmlns="http://www.w3.org/2000/svg" viewBox="0 0 60.19 13.47"><defs><style>.cls-1{fill:#fff;}.cls-2{fill:#e2704c;}</style></defs><title>Asset 37</title><g id="Layer_2" data-name="Layer 2"><g id="Layer_1-2" data-name="Layer 1"><g id="j7DRK3.tif"><path class="cls-1" d="M51.4,9.12a.57.57,0,0,1,0,.1c-.09.43-.18.86-.27,1.29A1.73,1.73,0,0,1,49.89,12a3.39,3.39,0,0,1-1.53.07c-.42-.08-.84-.18-1.28-.28L46.7,13.2l.06,0,.14,0a7.88,7.88,0,0,0,2.75.12,3.4,3.4,0,0,0,3.08-2.9c.39-2.17.76-4.35,1.15-6.52,0-.15,0-.22-.15-.24A11.86,11.86,0,0,0,51,3.61a3.71,3.71,0,0,0-2.35,1.07,4.86,4.86,0,0,0-1.35,4.17,1.51,1.51,0,0,0,1.22,1.39,2.48,2.48,0,0,0,2.52-.75C51.19,9.38,51.28,9.26,51.4,9.12Zm-18,1.2h1.47c.13,0,.19,0,.2-.18s0-.28.06-.43c.13-1,.27-1.94.4-2.91a9.6,9.6,0,0,0,.18-1.87,1.33,1.33,0,0,0-1.06-1.27,2.44,2.44,0,0,0-.41-.05A2.71,2.71,0,0,0,31.8,4.7a.74.74,0,0,0-.06.12l-.05,0C32,3.42,32.12,2,32.36.63a1.94,1.94,0,0,0-.25,0l-1.53,0c-.29,0-.58,0-.86.07s-.22.07-.23.23a4.3,4.3,0,0,1-.09.63c0,.14,0,.19.15.2s.55.07.82.1.14.08.13.19c-.13.89-.25,1.79-.37,2.68l-.66,4.75c0,.27-.07.54-.11.83.5,0,1,0,1.44,0,.16,0,.22-.06.24-.21.13-.94.26-1.88.38-2.82A3.39,3.39,0,0,1,31.84,6a2,2,0,0,1,1.22-1c.63-.15,1,.2,1,.84-.12,1-.27,2-.41,3ZM4,3.78c.1-.48.16-.91.29-1.32a1.19,1.19,0,0,1,1.24-.86,5.6,5.6,0,0,1,.86.08c.13,0,.18,0,.21-.13.09-.42.18-.85.29-1.27C7,.15,6.91.1,6.8.09L6.14,0A4.63,4.63,0,0,0,4.21.24,2.78,2.78,0,0,0,2.44,2.16c-.11.35-.2.71-.3,1.07a.69.69,0,0,1-.66.55l-.55,0c-.12,0-.18,0-.19.17s0,.3-.06.45l-.11.88H2.12l-2,4H1.58L0,12.32l0,0,4.39-4.5H2.71l.21-.23L5.56,5s.11-.1.13-.16c.07-.34.13-.69.2-1.06ZM39.76,10.3l.06,0,2.56-.11s.09-.08.1-.13c0-.25.07-.5.11-.74s-.05-.17-.17-.18l-.65-.07c-.3,0-.3,0-.26-.35.15-1.06.31-2.11.43-3.17A1.55,1.55,0,0,0,41.33,4a2.33,2.33,0,0,0-1.06-.35,7.23,7.23,0,0,0-2.7.23c-.43.11-.43.11-.47.55,0,0,0,0,0,.07q0,.43,0,.85h0l.14-.06a4.59,4.59,0,0,1,2.11-.4.81.81,0,0,1,.88,1c0,.09,0,.17,0,.26s-.11.24-.29.25a5.73,5.73,0,0,0-2.21.42A2.48,2.48,0,0,0,36,8.9a1.3,1.3,0,0,0,1,1.48,2.67,2.67,0,0,0,2.82-1.06L40,9.18ZM22.93,8.81l-.21.07a5.14,5.14,0,0,1-2,.32,1.3,1.3,0,0,1-1.4-1.13,3.58,3.58,0,0,1,0-.56c0-.14.06-.19.21-.19l3.56,0h.19c.13,0,.2,0,.23-.18a4.71,4.71,0,0,0,.1-1.7,2,2,0,0,0-1.46-1.69A3.38,3.38,0,0,0,18.5,5.06a4.88,4.88,0,0,0-.81,3.32,2.08,2.08,0,0,0,1.81,2,4.91,4.91,0,0,0,1.85,0c.48-.07.94-.2,1.41-.32.06,0,.15-.1.16-.15C22.94,9.59,22.93,9.21,22.93,8.81Zm-6.45,0-.17,0a5.1,5.1,0,0,1-2,.32,1.28,1.28,0,0,1-1.35-1.1,2.81,2.81,0,0,1,0-.51c0-.26,0-.27.28-.27h3.66c.15,0,.22,0,.26-.2a4.56,4.56,0,0,0,.1-1.68,1.93,1.93,0,0,0-1.25-1.63,3.11,3.11,0,0,0-1.41-.17,3.28,3.28,0,0,0-2.6,1.61,5.11,5.11,0,0,0-.71,3A2.13,2.13,0,0,0,13,10.37a6.14,6.14,0,0,0,3.12-.17c.51-.15.4-.06.41-.54C16.49,9.4,16.48,9.12,16.48,8.83Zm42.94-.07h0l-.14.05A4.71,4.71,0,0,1,57,9.08a1.18,1.18,0,0,1-1.07-1,4.43,4.43,0,0,1,0-.65c0-.15.06-.2.21-.2l2.62,0h1.09c.16,0,.24,0,.27-.21a5,5,0,0,0,.11-1.61,2,2,0,0,0-1.5-1.76,3.37,3.37,0,0,0-3.79,1.54,5.06,5.06,0,0,0-.68,3.11,2.11,2.11,0,0,0,1.61,2,4.93,4.93,0,0,0,2.05.09c.47-.07.93-.2,1.39-.31.06,0,.16-.09.16-.15C59.43,9.52,59.42,9.14,59.42,8.75Zm-30-4.93-.16-.05a4.91,4.91,0,0,0-1.51-.12A3.5,3.5,0,0,0,25,5.12a4.88,4.88,0,0,0-.84,3.47,1.92,1.92,0,0,0,1.6,1.77,5.25,5.25,0,0,0,2.64-.16.17.17,0,0,0,.14-.19c0-.21,0-.43,0-.64s0-.38,0-.59l-.17,0A3.38,3.38,0,0,1,27,9a1.09,1.09,0,0,1-1-.87,3,3,0,0,1,.51-2.47A1.56,1.56,0,0,1,27.64,5a2.73,2.73,0,0,1,1.13.14c.24.08.24.08.3-.17ZM9.26,5.09l0,0,0-.16c.07-.32.14-.65.22-1,0-.14,0-.18-.15-.18l-2.42.12A.19.19,0,0,0,6.78,4c0,.26-.08.53-.12.8,0,.1,0,.13.12.14L7.51,5c.26,0,.27,0,.24.3-.06.42-.12.83-.18,1.25L7.21,9.18c-.05.39-.1.78-.16,1.17l.07,0H8.57a.19.19,0,0,0,.13-.12c0-.28.08-.56.12-.84.11-.77.21-1.55.35-2.32a2.88,2.88,0,0,1,.55-1.31A1.36,1.36,0,0,1,11,5.24c.12,0,.23,0,.26-.15.07-.41.15-.81.22-1.22,0-.25,0-.27-.22-.25a2.18,2.18,0,0,0-1.58.85C9.55,4.67,9.41,4.88,9.26,5.09Zm34,5.21h1.46c.13,0,.19,0,.21-.17.1-.78.22-1.56.32-2.35a5.33,5.33,0,0,1,.44-1.67,1.48,1.48,0,0,1,1.61-.95c.11,0,.17,0,.19-.14.07-.43.15-.85.24-1.28,0-.17,0-.22-.17-.19a4.31,4.31,0,0,0-.87.21,2.43,2.43,0,0,0-1.08,1.07L45.5,5l0,0,0-.14.23-1c0-.14,0-.21-.17-.2l-2.39.12A.15.15,0,0,0,43,4c0,.21-.05.42-.09.63s0,.25.22.27L44,5Z"/><path class="cls-2" d="M51.4,9.12c-.12.14-.21.26-.31.37a2.48,2.48,0,0,1-2.52.75,1.51,1.51,0,0,1-1.22-1.39,4.86,4.86,0,0,1,1.35-4.17A3.71,3.71,0,0,1,51,3.61a11.86,11.86,0,0,1,2.68.12c.15,0,.18.09.15.24-.39,2.17-.76,4.35-1.15,6.52a3.4,3.4,0,0,1-3.08,2.9,7.88,7.88,0,0,1-2.75-.12l-.14,0-.06,0,.38-1.44c.44.1.86.21,1.28.28A3.39,3.39,0,0,0,49.89,12a1.73,1.73,0,0,0,1.24-1.47c.09-.43.18-.86.27-1.29A.57.57,0,0,0,51.4,9.12ZM49,7.88c0,.1,0,.24,0,.37A.8.8,0,0,0,50,9a1.2,1.2,0,0,0,.72-.24,2.62,2.62,0,0,0,1-1.56c.14-.58.23-1.17.34-1.75s.08-.46-.38-.53h0a1.9,1.9,0,0,0-2.14,1.17A5.08,5.08,0,0,0,49,7.88Z"/><path class="cls-2" d="M33.42,10.32l.19-1.43c.14-1,.28-2,.41-3,.08-.64-.33-1-1-.84a2,2,0,0,0-1.22,1,3.39,3.39,0,0,0-.42,1.32c-.13.94-.26,1.88-.38,2.82,0,.15-.08.21-.24.21-.47,0-.94,0-1.44,0,0-.29.07-.56.11-.83l.66-4.75c.12-.89.24-1.79.37-2.68,0-.11,0-.18-.13-.19s-.55-.08-.82-.1-.18-.06-.15-.2a4.3,4.3,0,0,0,.09-.63c0-.16.09-.22.23-.23s.57-.06.86-.07l1.53,0a1.94,1.94,0,0,1,.25,0C32.12,2,32,3.42,31.68,4.78l.05,0a.74.74,0,0,1,.06-.12,2.71,2.71,0,0,1,2.45-1.1,2.44,2.44,0,0,1,.41.05,1.33,1.33,0,0,1,1.06,1.27,9.6,9.6,0,0,1-.18,1.87c-.13,1-.26,1.94-.4,2.91,0,.14-.05.28-.06.43s-.07.18-.2.18Z"/><path class="cls-2" d="M4,3.78H5.88c-.07.37-.13.72-.2,1.06,0,.06-.08.11-.13.16L2.91,7.6l-.21.23H4.42L0,12.34l0,0L1.58,9.25H.1l2-4H.57l.11-.88c0-.15.05-.3.06-.45S.81,3.8.93,3.8l.55,0a.69.69,0,0,0,.66-.55c.11-.35.19-.71.3-1.07A2.78,2.78,0,0,1,4.21.24,4.63,4.63,0,0,1,6.14,0L6.8.09c.11,0,.16.06.13.19-.1.42-.2.84-.29,1.27,0,.13-.07.15-.21.13a5.6,5.6,0,0,0-.86-.08,1.19,1.19,0,0,0-1.24.86C4.21,2.86,4.15,3.3,4,3.78Z"/><path class="cls-2" d="M39.76,10.3,40,9.18l-.12.14A2.67,2.67,0,0,1,37,10.38,1.3,1.3,0,0,1,36,8.9a2.48,2.48,0,0,1,1.72-2.16,5.73,5.73,0,0,1,2.21-.42c.18,0,.29,0,.29-.25s0-.17,0-.26a.81.81,0,0,0-.88-1,4.59,4.59,0,0,0-2.11.4l-.14.06h0q0-.43,0-.85s0,0,0-.07c0-.43,0-.43.47-.55a7.23,7.23,0,0,1,2.7-.23A2.33,2.33,0,0,1,41.33,4a1.55,1.55,0,0,1,.6,1.61c-.12,1.06-.28,2.11-.43,3.17,0,.3,0,.31.26.35l.65.07c.12,0,.19,0,.17.18s-.07.5-.11.74c0,0-.06.13-.1.13l-2.56.11ZM38.31,9.2A1.88,1.88,0,0,0,40,7.51c0-.13-.07-.15-.17-.14-.34,0-.69.05-1,.11a1.55,1.55,0,0,0-1,.49.8.8,0,0,0-.17.86A.65.65,0,0,0,38.31,9.2Z"/><path class="cls-2" d="M22.93,8.81c0,.41,0,.78,0,1.16,0,.05-.09.13-.16.15-.47.12-.94.24-1.41.32a4.91,4.91,0,0,1-1.85,0,2.08,2.08,0,0,1-1.81-2,4.88,4.88,0,0,1,.81-3.32,3.38,3.38,0,0,1,3.68-1.34,2,2,0,0,1,1.46,1.69,4.71,4.71,0,0,1-.1,1.7c0,.14-.1.19-.23.18h-.19l-3.56,0c-.15,0-.21.06-.21.19a3.58,3.58,0,0,0,0,.56,1.3,1.3,0,0,0,1.4,1.13,5.14,5.14,0,0,0,2-.32ZM19.58,6.18l.23,0,1,0h1.11a.21.21,0,0,0,.16-.1,1,1,0,0,0-.9-1.25A1.58,1.58,0,0,0,19.58,6.18Z"/><path class="cls-2" d="M16.48,8.83c0,.29,0,.57,0,.84,0,.47.1.39-.41.54a6.14,6.14,0,0,1-3.12.17,2.13,2.13,0,0,1-1.72-2.12,5.11,5.11,0,0,1,.71-3,3.28,3.28,0,0,1,2.6-1.61,3.11,3.11,0,0,1,1.41.17A1.93,1.93,0,0,1,17.2,5.44a4.56,4.56,0,0,1-.1,1.68c0,.16-.11.2-.26.2H13.19c-.26,0-.28,0-.28.27a2.81,2.81,0,0,0,0,.51,1.28,1.28,0,0,0,1.35,1.1,5.1,5.1,0,0,0,2-.32ZM13.14,6.18l.06,0h2.28a.18.18,0,0,0,.13-.1A1,1,0,0,0,15,4.9,1.51,1.51,0,0,0,13.14,6.18Z"/><path class="cls-2" d="M59.42,8.75c0,.38,0,.76,0,1.15,0,.05-.1.13-.16.15-.46.11-.92.24-1.39.31a4.93,4.93,0,0,1-2.05-.09,2.11,2.11,0,0,1-1.61-2,5.06,5.06,0,0,1,.68-3.11,3.37,3.37,0,0,1,3.79-1.54,2,2,0,0,1,1.5,1.76A5,5,0,0,1,60.06,7c0,.16-.11.21-.27.21H58.69l-2.62,0c-.16,0-.22.05-.21.2a4.43,4.43,0,0,0,0,.65,1.18,1.18,0,0,0,1.07,1,4.71,4.71,0,0,0,2.29-.28l.14-.05Zm-1.6-2.62v0h.6c.05,0,.14-.06.14-.1a1,1,0,0,0-1-1.25,1.55,1.55,0,0,0-1.47,1.17c-.06.18,0,.21.15.21Z"/><path class="cls-2" d="M29.37,3.82,29.07,5c-.06.25-.06.25-.3.17A2.73,2.73,0,0,0,27.64,5a1.56,1.56,0,0,0-1.17.65A3,3,0,0,0,26,8.14,1.09,1.09,0,0,0,27,9a3.38,3.38,0,0,0,1.37-.18l.17,0c0,.21,0,.4,0,.59s0,.43,0,.64a.17.17,0,0,1-.14.19,5.25,5.25,0,0,1-2.64.16,1.92,1.92,0,0,1-1.6-1.77A4.88,4.88,0,0,1,25,5.12,3.5,3.5,0,0,1,27.7,3.65a4.91,4.91,0,0,1,1.51.12Z"/><path class="cls-2" d="M9.26,5.09c.15-.21.28-.42.44-.62a2.18,2.18,0,0,1,1.58-.85c.25,0,.27,0,.22.25-.07.41-.16.81-.22,1.22,0,.18-.14.17-.26.15a1.36,1.36,0,0,0-1.29.54,2.88,2.88,0,0,0-.55,1.31c-.14.77-.24,1.55-.35,2.32,0,.28-.07.56-.12.84a.19.19,0,0,1-.13.12H7.12l-.07,0c.05-.39.1-.78.16-1.17l.36-2.61c.06-.42.12-.83.18-1.25,0-.26,0-.28-.24-.3l-.73-.08c-.09,0-.14,0-.12-.14,0-.27.07-.53.12-.8a.19.19,0,0,1,.13-.11l2.42-.12c.13,0,.18,0,.15.18-.08.32-.15.65-.22,1l0,.16Z"/><path class="cls-2" d="M43.27,10.3,44,5l-.89-.11c-.25,0-.26,0-.22-.27S43,4.18,43,4a.15.15,0,0,1,.17-.16l2.39-.12c.16,0,.2.06.17.2l-.23,1,0,.14,0,0,.12-.19A2.43,2.43,0,0,1,46.7,3.78a4.31,4.31,0,0,1,.87-.21c.14,0,.21,0,.17.19-.09.42-.17.85-.24,1.28,0,.13-.07.15-.19.14a1.48,1.48,0,0,0-1.61.95,5.33,5.33,0,0,0-.44,1.67c-.11.78-.22,1.56-.32,2.35,0,.14-.07.17-.21.17Z"/><path class="cls-1" d="M49,7.88a5.08,5.08,0,0,1,.4-1.83,1.9,1.9,0,0,1,2.14-1.17h0c.47.07.47.07.38.53s-.2,1.17-.34,1.75a2.62,2.62,0,0,1-1,1.56A1.2,1.2,0,0,1,50,9a.8.8,0,0,1-.88-.73C49.06,8.12,49.05,8,49,7.88Z"/><path class="cls-1" d="M38.31,9.2a.65.65,0,0,1-.63-.37A.8.8,0,0,1,37.85,8a1.55,1.55,0,0,1,1-.49c.34-.06.68-.08,1-.11.1,0,.18,0,.17.14A1.88,1.88,0,0,1,38.31,9.2Z"/><path class="cls-1" d="M19.58,6.18a1.58,1.58,0,0,1,1.58-1.35,1,1,0,0,1,.9,1.25.21.21,0,0,1-.16.1H20.79l-1,0Z"/><path class="cls-1" d="M13.14,6.18A1.51,1.51,0,0,1,15,4.9a1,1,0,0,1,.59,1.2.18.18,0,0,1-.13.1H13.21Z"/><path class="cls-1" d="M57.82,6.13H56.27c-.2,0-.21,0-.15-.21a1.55,1.55,0,0,1,1.47-1.17,1,1,0,0,1,1,1.25s-.09.1-.14.1h-.6Z"/></g></g></g></svg>