<?xml version="1.0" encoding="utf-8"?>
<!-- Generator: Adobe Illustrator 16.0.0, SVG Export Plug-In . SVG Version: 6.00 Build 0)  -->
<!DOCTYPE svg PUBLIC "-//W3C//DTD SVG 1.1//EN" "http://www.w3.org/Graphics/SVG/1.1/DTD/svg11.dtd">
<svg version="1.1" id="Layer_1" xmlns="http://www.w3.org/2000/svg" xmlns:xlink="http://www.w3.org/1999/xlink" x="0px" y="0px"
	 width="98.934px" height="22px" viewBox="0 0 98.934 22" enable-background="new 0 0 98.934 22" xml:space="preserve">
<g>
	<path fill="#002447" d="M9.67,1c0.248-0.417,0.726-0.658,1.204-0.667c0.458,0.016,0.925,0.243,1.154,0.65
		c-0.159-0.119-0.311-0.253-0.501-0.319c-0.602-0.239-1.35,0.046-1.647,0.619c-2.92,5.54-5.837,11.081-8.757,16.621
		c-0.116,0.244-0.282,0.469-0.334,0.737c-0.107,0.478,0.086,1.003,0.463,1.31c0.225,0.193,0.517,0.287,0.809,0.306
		c0.386,0.006,0.771-0.159,1.033-0.443c0.129-0.148,0.22-0.325,0.308-0.5c1.942-3.688,3.886-7.376,5.828-11.064
		c0.174-0.316,0.325-0.645,0.513-0.953c0.005,3.378,0.001,6.756,0.002,10.134c0.014,0.337,0.147,0.678,0.398,0.909
		c0.222,0.243,0.547,0.371,0.872,0.396c0.522,0.021,1.035-0.297,1.251-0.772c0.055-0.143,0.176-0.244,0.238-0.383
		c0.706-1.354,1.403-2.713,2.105-4.068c0.479-0.917,0.944-1.841,1.431-2.753c0.005,1.889,0,3.776,0.002,5.665
		c-0.007,0.307,0.014,0.63,0.173,0.9c0.211,0.386,0.622,0.653,1.062,0.687c0.712,0.066,1.398-0.549,1.42-1.263
		c0.002-3.816-0.001-7.633,0.001-11.45c-0.001-0.28-0.094-0.559-0.262-0.782c-0.248-0.351-0.68-0.552-1.106-0.545
		c-0.323,0.021-0.639,0.152-0.871,0.38c-0.269,0.257-0.377,0.626-0.562,0.94c-1.002,1.931-2.004,3.863-3.005,5.794
		c-0.396,0.755-0.736,1.537-1.115,2.3c0.002-0.019,0.007-0.057,0.01-0.075c0.199-0.746,0.419-1.489,0.612-2.238
		c0.002-2.795,0-5.591,0-8.387c0.993-0.159,1.983-0.334,2.976-0.494c0.92-0.16,1.843-0.308,2.763-0.467
		c0.287-0.049,0.574-0.097,0.861-0.144c0.735-0.126,1.471-0.248,2.207-0.373c0.245-0.057,0.506-0.046,0.741,0.048
		c0.237,0.097,0.402,0.322,0.462,0.567c0.079,0.258,0.024,0.528,0,0.79c0.469-0.088,0.962-0.123,1.426,0.009
		c0.301,0.083,0.582,0.271,0.735,0.547c0.106,0.19,0.164,0.408,0.173,0.625c-0.087,1.196-0.166,2.392-0.251,3.587
		c-0.017,0.053,0.019,0.094,0.072,0.097c0.415,0.054,0.822-0.079,1.213-0.201c0.376-0.14,0.762-0.297,1.171-0.274
		c0.383-0.028,0.792,0.118,1.025,0.433c0.239,0.31,0.294,0.713,0.322,1.092c-0.006,0.497-0.152,0.999-0.45,1.401
		c-0.421,0.59-1.082,0.96-1.759,1.181c-0.683,0.189-1.376,0.347-2.076,0.462c-0.246,2.261-0.473,4.524-0.713,6.785
		c-0.032,0.295-0.044,0.597-0.128,0.884c-0.089,0.323-0.24,0.646-0.504,0.862c-0.187,0.149-0.429,0.224-0.667,0.215
		c-0.448-0.002-0.895-0.001-1.343-0.001c-0.002,0.306-0.136,0.598-0.302,0.849c-0.228,0.34-0.64,0.538-1.048,0.515
		c-0.345,0.037-0.693-0.002-1.038,0.035c-0.73,0-1.46,0.002-2.19,0c-0.097-0.001-0.192,0.02-0.289,0.019
		c-1.087,0-2.174-0.001-3.261,0.001c-0.526-0.037-1.054-0.012-1.581-0.02c-0.837,0-1.675,0-2.512,0
		c-0.395-0.006-0.792,0.017-1.186-0.018c-0.837,0.001-1.673,0-2.51,0c-0.227-0.002-0.454,0.011-0.68-0.018
		c-0.838-0.001-1.676,0.001-2.514-0.001c-0.261-0.032-0.525-0.007-0.787-0.021c-0.268-0.074-0.53-0.234-0.656-0.491
		c-0.1-0.178-0.082-0.386-0.101-0.579c-0.001-4.476,0-8.949,0-13.424c-0.005-0.132,0.003-0.263,0.017-0.394
		c0.006-0.404-0.006-0.809,0.005-1.213c0.152-0.516,0.617-0.913,1.141-1.016c2.263-0.352,4.521-0.738,6.78-1.113
		c0.152-0.022,0.303-0.059,0.457-0.067C8.53,3.218,8.588,3.029,8.687,2.866C9.015,2.245,9.34,1.621,9.67,1L9.67,1z M22.396,2.689
		c-0.146,1.599-0.315,3.195-0.467,4.793c-0.377,3.8-0.751,7.601-1.126,11.402c0.223-0.002,0.458,0.015,0.663-0.094
		c0.214-0.102,0.328-0.338,0.351-0.565c0.115-0.9,0.204-1.805,0.302-2.708c0.41-3.942,0.799-7.888,1.191-11.832
		c-0.003-0.149-0.071-0.288-0.155-0.409C22.967,3.01,22.681,2.836,22.396,2.689L22.396,2.689z M26.129,7.819
		c-0.413,0.068-0.763,0.402-0.849,0.812C25.199,8.97,25.31,9.35,25.562,9.593c0.192,0.2,0.468,0.313,0.743,0.319
		c0.274-0.01,0.552-0.116,0.741-0.318c0.213-0.204,0.326-0.502,0.313-0.795c-0.032-0.377-0.263-0.74-0.614-0.894
		C26.556,7.804,26.336,7.796,26.129,7.819L26.129,7.819z M38.463,6.119c0.47-0.485,1.369-0.419,1.765,0.128
		c0.149,0.188,0.23,0.426,0.233,0.666c-0.001,1.506,0,3.012,0,4.517c0.367-0.504,0.805-0.968,1.339-1.296
		c0.766-0.486,1.708-0.652,2.601-0.551c1.367,0.136,2.639,0.938,3.369,2.099c0.465,0.72,0.724,1.56,0.815,2.407
		c0.075,0.729,0.048,1.47-0.108,2.187c-0.16,0.729-0.459,1.435-0.913,2.031c-0.431,0.579-1.003,1.051-1.65,1.368
		c-0.805,0.396-1.727,0.539-2.615,0.424c-0.661-0.086-1.302-0.332-1.838-0.73c-0.385-0.275-0.714-0.623-1.001-0.998
		c-0.008,0.345,0.053,0.714-0.129,1.027c-0.238,0.48-0.832,0.725-1.344,0.586c-0.493-0.119-0.883-0.604-0.858-1.117
		c0.001-4.008,0-8.016,0.001-12.023C38.144,6.57,38.263,6.304,38.463,6.119L38.463,6.119z M42.835,11.639
		c-0.758,0.144-1.444,0.609-1.868,1.252c-0.391,0.583-0.574,1.291-0.561,1.99c-0.002,0.75,0.229,1.51,0.695,2.104
		c0.445,0.577,1.118,0.976,1.839,1.084c0.673,0.093,1.386-0.04,1.952-0.425c0.654-0.42,1.085-1.13,1.251-1.88
		c0.146-0.666,0.134-1.37-0.053-2.027c-0.217-0.758-0.724-1.446-1.429-1.815C44.111,11.612,43.452,11.529,42.835,11.639
		L42.835,11.639z M86.499,6.023c0.443-0.341,1.136-0.303,1.532,0.096c0.219,0.203,0.353,0.496,0.353,0.795
		c-0.001,2.502,0,5.005,0,7.508c0.241-0.239,0.481-0.48,0.722-0.722c0.31-0.276,0.593-0.582,0.889-0.871
		c0.143-0.156,0.313-0.282,0.457-0.438c0.303-0.297,0.592-0.607,0.906-0.89c0.281-0.281,0.562-0.563,0.844-0.844
		c0.249-0.206,0.456-0.456,0.698-0.669c0.229-0.199,0.519-0.351,0.83-0.332c0.366-0.024,0.728,0.191,0.895,0.515
		c0.144,0.245,0.158,0.546,0.104,0.818c-0.104,0.408-0.451,0.675-0.741,0.951c-0.812,0.739-1.61,1.494-2.428,2.229
		c0.905,1.182,1.81,2.362,2.714,3.545c0.188,0.257,0.405,0.494,0.554,0.777c0.164,0.319,0.138,0.717-0.042,1.023
		c-0.168,0.278-0.477,0.459-0.796,0.493c-0.183,0.006-0.37,0.018-0.547-0.037c-0.271-0.072-0.49-0.27-0.652-0.492
		c-0.959-1.276-1.918-2.553-2.88-3.827c-0.476,0.457-0.959,0.906-1.433,1.366c-0.032,0.026-0.063,0.052-0.094,0.078
		c0.003,0.589,0,1.179,0.002,1.769c0.011,0.361-0.174,0.72-0.467,0.93c-0.354,0.26-0.858,0.295-1.248,0.097
		c-0.395-0.187-0.647-0.63-0.618-1.064c0-3.946,0-7.892,0-11.839C86.025,6.619,86.204,6.245,86.499,6.023L86.499,6.023z
		 M50.906,5.933c0.392-0.063,0.817-0.019,1.157,0.199c0.302,0.186,0.502,0.534,0.491,0.891c-0.002,0.167,0.013,0.339-0.049,0.498
		c-0.096,0.315-0.352,0.563-0.652,0.685c-0.439,0.181-0.962,0.166-1.382-0.061c-0.345-0.176-0.587-0.553-0.574-0.944
		c0-0.186-0.015-0.379,0.063-0.553C50.103,6.249,50.502,6.001,50.906,5.933L50.906,5.933z M82.73,5.916
		c0.463-0.043,0.984,0.069,1.292,0.443c0.254,0.299,0.276,0.723,0.203,1.092c-0.105,0.463-0.545,0.785-1.002,0.851
		c-0.461,0.083-0.981-0.022-1.323-0.359c-0.27-0.263-0.353-0.667-0.302-1.029c0.024-0.237,0.128-0.468,0.302-0.633
		C82.119,6.059,82.427,5.952,82.73,5.916L82.73,5.916z M54.667,7.182c0.129-0.433,0.535-0.757,0.982-0.803
		c0.182-0.008,0.369-0.014,0.544,0.048c0.458,0.148,0.813,0.609,0.792,1.098c-0.002,1.898-0.001,3.797-0.001,5.694
		c0.975-1.006,1.979-1.985,2.965-2.98c0.163-0.148,0.296-0.325,0.456-0.476c0.85-0.849,1.698-1.698,2.548-2.547
		c0.198-0.187,0.362-0.409,0.579-0.577c0.224-0.185,0.517-0.282,0.807-0.264c0.373-0.021,0.747,0.183,0.937,0.503
		c0.274,0.434,0.202,1.051-0.175,1.403c-0.146,0.143-0.284,0.293-0.442,0.422c-0.264,0.273-0.55,0.524-0.813,0.797
		c-0.223,0.181-0.404,0.405-0.623,0.59c-0.169,0.156-0.318,0.332-0.497,0.478c-0.621,0.614-1.262,1.208-1.881,1.823
		c1.503,1.86,3,3.726,4.502,5.587c0.191,0.24,0.354,0.529,0.342,0.847c0.019,0.313-0.107,0.621-0.322,0.847
		c-0.386,0.378-1.039,0.464-1.497,0.168c-0.222-0.146-0.376-0.368-0.537-0.575c-1.39-1.766-2.769-3.541-4.164-5.303
		c-0.234,0.248-0.5,0.466-0.733,0.716c-0.251,0.215-0.466,0.469-0.719,0.681c-0.235,0.248-0.493,0.471-0.73,0.715
		c0,0.967,0.001,1.935,0,2.902c-0.028,0.369-0.263,0.705-0.578,0.891c-0.524,0.299-1.274,0.146-1.601-0.374
		c-0.156-0.224-0.207-0.503-0.189-0.771c0-3.613,0-7.226,0-10.838C54.625,7.649,54.588,7.408,54.667,7.182L54.667,7.182z
		 M25.828,8.485c0.189-0.257,0.594-0.305,0.842-0.108c0.161,0.109,0.232,0.304,0.24,0.492c-0.005,0.301-0.257,0.574-0.559,0.592
		c-0.292,0.031-0.575-0.19-0.635-0.473C25.696,8.814,25.71,8.624,25.828,8.485L25.828,8.485z M94.48,9.057
		c0.025-0.11,0.082-0.243,0.217-0.24c0.492-0.002,0.984-0.002,1.477,0c0.145,0.001,0.247,0.174,0.193,0.305
		c-0.025,0.083-0.102,0.149-0.187,0.158c-0.166,0.008-0.331,0-0.495,0.003c-0.002,0.523,0.006,1.047-0.004,1.569
		c-0.007,0.187-0.25,0.263-0.39,0.167c-0.081-0.045-0.112-0.143-0.108-0.229c0-0.502,0-1.004,0-1.507
		c-0.168-0.004-0.336,0.007-0.504-0.005C94.564,9.265,94.505,9.157,94.48,9.057L94.48,9.057z M96.833,8.834
		c0.125-0.063,0.309-0.055,0.396,0.067c0.206,0.318,0.391,0.649,0.6,0.964c0.196-0.318,0.39-0.639,0.59-0.955
		c0.122-0.181,0.476-0.149,0.512,0.084c0.003,0.612,0.001,1.224,0.002,1.835c0.009,0.122-0.103,0.222-0.217,0.23
		c-0.143,0.021-0.28-0.101-0.281-0.243c-0.012-0.354,0.001-0.709-0.007-1.064c-0.106,0.176-0.221,0.348-0.333,0.521
		c-0.053,0.076-0.094,0.172-0.186,0.208c-0.115,0.056-0.249-0.022-0.309-0.123c-0.129-0.203-0.265-0.401-0.39-0.606
		c-0.004,0.36,0.002,0.72-0.003,1.08c0.002,0.169-0.201,0.279-0.348,0.21c-0.12-0.037-0.156-0.176-0.153-0.287
		c0.001-0.552,0-1.104,0.001-1.655C96.708,8.999,96.735,8.884,96.833,8.834L96.833,8.834z M30.94,9.576
		c0.915-0.08,1.853,0.053,2.702,0.406c1.188,0.486,2.18,1.429,2.719,2.594c0.647,1.391,0.662,3.063,0.028,4.461
		c-0.563,1.264-1.655,2.271-2.948,2.754c-1.575,0.59-3.422,0.467-4.874-0.396c-1.06-0.619-1.878-1.632-2.268-2.796
		c-0.322-0.949-0.358-1.988-0.135-2.964c0.337-1.472,1.346-2.776,2.694-3.459C29.501,9.835,30.216,9.638,30.94,9.576L30.94,9.576z
		 M30.644,11.701c-0.614,0.145-1.176,0.499-1.565,0.996c-0.413,0.508-0.64,1.148-0.698,1.796c-0.072,0.765,0.097,1.558,0.514,2.206
		c0.378,0.594,0.963,1.056,1.638,1.262c0.693,0.21,1.46,0.179,2.131-0.096c0.643-0.258,1.167-0.772,1.481-1.386
		c0.327-0.633,0.416-1.364,0.337-2.065c-0.09-0.73-0.417-1.44-0.952-1.952c-0.45-0.452-1.056-0.736-1.686-0.825
		C31.445,11.596,31.035,11.599,30.644,11.701L30.644,11.701z M50.961,9.679c0.316-0.058,0.665-0.018,0.932,0.173
		c0.323,0.21,0.512,0.591,0.517,0.973c0,2.679,0,5.357,0,8.037c-0.007,0.296-0.114,0.597-0.328,0.807
		c-0.429,0.449-1.229,0.472-1.669,0.026c-0.23-0.212-0.346-0.522-0.353-0.831c-0.001-2.632,0-5.264-0.001-7.895
		c-0.007-0.246,0.026-0.5,0.145-0.719C50.363,9.966,50.638,9.743,50.961,9.679L50.961,9.679z M65.9,9.98
		c0.419-0.418,1.177-0.448,1.607-0.032c0.201,0.193,0.326,0.452,0.402,0.717c0.638,2.007,1.282,4.013,1.916,6.022
		c0.651-1.988,1.281-3.983,1.929-5.973c0.068-0.262,0.188-0.516,0.378-0.71c0.238-0.246,0.588-0.377,0.93-0.345
		c0.339-0.028,0.696,0.087,0.926,0.344c0.166,0.152,0.272,0.355,0.342,0.567c0.581,1.784,1.158,3.568,1.739,5.35
		c0.068,0.269,0.2,0.522,0.24,0.798c0.623-1.933,1.241-3.867,1.861-5.8c0.073-0.203,0.116-0.417,0.217-0.61
		c0.136-0.297,0.402-0.533,0.72-0.618c0.159-0.042,0.328-0.034,0.492-0.025c0.354,0.044,0.682,0.278,0.828,0.604
		c0.159,0.312,0.11,0.685,0.006,1.006c-0.853,2.401-1.703,4.803-2.556,7.204c-0.098,0.27-0.183,0.544-0.299,0.807
		c-0.148,0.312-0.396,0.594-0.722,0.725c-0.396,0.142-0.859,0.124-1.228-0.088c-0.324-0.191-0.526-0.536-0.625-0.892
		c-0.652-1.979-1.305-3.96-1.949-5.941c-0.622,1.888-1.249,3.774-1.873,5.662c-0.098,0.271-0.16,0.563-0.331,0.801
		c-0.156,0.217-0.371,0.402-0.63,0.482c-0.443,0.131-0.967,0.078-1.325-0.234c-0.245-0.21-0.385-0.511-0.482-0.813
		c-0.865-2.449-1.731-4.899-2.597-7.35c-0.117-0.327-0.252-0.667-0.215-1.021C65.623,10.377,65.74,10.156,65.9,9.98L65.9,9.98z
		 M82.582,9.699c0.228-0.063,0.478-0.058,0.705,0.005c0.494,0.146,0.837,0.641,0.824,1.152c0.006,2.622,0,5.242,0.003,7.863
		c-0.002,0.285-0.044,0.588-0.225,0.82c-0.303,0.445-0.927,0.585-1.416,0.395c-0.411-0.17-0.706-0.589-0.711-1.036
		c0-2.703,0-5.405,0-8.108C81.767,10.301,82.108,9.833,82.582,9.699L82.582,9.699z"/>
</g>
</svg>
