<?xml version="1.0" encoding="utf-8"?>
<!-- Generator: Adobe Illustrator 16.0.0, SVG Export Plug-In . SVG Version: 6.00 Build 0)  -->
<!DOCTYPE svg PUBLIC "-//W3C//DTD SVG 1.1//EN" "http://www.w3.org/Graphics/SVG/1.1/DTD/svg11.dtd">
<svg version="1.1" id="Layer_2" xmlns="http://www.w3.org/2000/svg" xmlns:xlink="http://www.w3.org/1999/xlink" x="0px" y="0px"
	 width="923.105px" height="250.729px" viewBox="118.659 265.685 923.105 250.729"
	 enable-background="new 118.659 265.685 923.105 250.729" xml:space="preserve">
<g id="g34" transform="translate(.0248 -6.071)">
	<circle id="ellipse30" fill="#5F259F" cx="243.999" cy="397.121" r="125.337"/>
	<path id="path32" fill="#5F259F" d="M752.545,468.752v-45.515c0-11.204-4.201-16.806-14.704-16.806c-4.202,0-9.104,0.7-11.904,1.4
		v66.522c0,2.101-2.101,4.201-4.201,4.201H705.63c-2.101,0-4.201-2.101-4.201-4.201v-77.726c0-2.802,2.101-4.902,4.201-5.603
		c10.504-3.501,21.007-5.602,32.211-5.602c25.208,0,39.213,13.305,39.213,37.813v51.817c0,2.101-2.101,4.201-4.202,4.201h-9.803
		C756.747,479.256,752.545,474.354,752.545,468.752z M815.566,441.443l-0.7,6.302c0,8.403,5.602,13.305,14.704,13.305
		c7.003,0,13.305-2.101,20.307-5.602c0.7,0,1.4-0.7,2.102-0.7c1.4,0,2.101,0.7,2.801,1.4s2.101,2.801,2.101,2.801
		c1.4,2.101,2.801,4.901,2.801,7.002c0,3.501-2.101,7.003-4.901,8.403c-7.703,4.201-16.806,6.302-26.609,6.302
		c-11.203,0-20.307-2.801-27.309-8.403c-7.002-6.302-11.204-14.704-11.204-25.208v-27.309c0-21.707,14.005-35.012,37.813-35.012
		c23.108,0,36.412,12.604,36.412,35.012v16.806c0,2.101-2.101,4.201-4.201,4.201h-44.114V441.443z M814.866,426.038h26.608v-7.002
		c0-8.403-4.901-14.005-13.305-14.005c-8.402,0-13.304,4.901-13.304,14.005V426.038z M993.424,441.443l-0.7,6.302
		c0,8.403,5.602,13.305,14.704,13.305c7.003,0,13.305-2.101,20.307-5.602c0.701,0,1.4-0.7,2.102-0.7c1.4,0,2.101,0.7,2.801,1.4
		s2.101,2.801,2.101,2.801c1.4,2.101,2.801,4.901,2.801,7.002c0,3.501-2.101,7.003-4.901,8.403
		c-7.703,4.201-16.806,6.302-26.609,6.302c-11.203,0-20.307-2.801-27.309-8.403c-7.002-6.302-11.204-14.704-11.204-25.208v-27.309
		c0-21.707,14.005-35.012,37.813-35.012c23.107,0,36.412,12.604,36.412,35.012v16.806c0,2.101-2.101,4.201-4.201,4.201h-44.114
		V441.443z M992.724,426.038h26.608v-7.002c0-8.403-4.901-14.005-13.305-14.005c-8.402,0-13.304,4.901-13.304,14.005V426.038z
		 M580.989,479.256h9.803c2.101,0,4.201-2.101,4.201-4.201v-51.817c0-23.808-12.604-37.813-33.61-37.813
		c-6.303,0-13.305,1.4-17.506,2.801v-25.908c0-5.602-4.901-10.504-10.504-10.504h-9.803c-2.101,0-4.201,2.101-4.201,4.202v119.039
		c0,2.101,2.101,4.201,4.201,4.201h16.105c2.101,0,4.201-2.101,4.201-4.201v-65.822c3.501-1.4,8.402-2.101,11.903-2.101
		c10.504,0,14.705,4.901,14.705,16.806v45.515C571.185,474.354,575.386,479.256,580.989,479.256z M686.723,420.436v25.908
		c0,21.707-14.705,35.012-39.213,35.012c-23.808,0-39.213-13.305-39.213-35.012v-25.908c0-21.707,14.705-35.012,39.213-35.012
		S686.723,398.729,686.723,420.436L686.723,420.436z M662.215,420.436c0-8.403-4.901-14.005-14.005-14.005
		c-9.103,0-14.005,4.901-14.005,14.005v25.908c0,8.403,4.902,13.305,14.005,13.305c9.104,0,14.005-4.901,14.005-13.305V420.436z
		 M506.064,408.532c0,22.407-16.806,37.813-39.213,37.813c-5.602,0-10.504-0.7-15.405-2.801v31.511c0,2.101-2.101,4.201-4.201,4.201
		h-16.105c-2.101,0-4.201-2.101-4.201-4.201V363.718c0-2.801,2.101-4.901,4.201-5.602c10.504-3.502,21.007-5.603,32.211-5.603
		c25.208,0,42.714,15.405,42.714,39.213V408.532z M480.856,390.326c0-11.203-7.703-16.806-18.206-16.806
		c-6.303,0-10.504,2.102-10.504,2.102v46.215c4.201,2.101,6.302,2.801,11.204,2.801c10.503,0,18.206-6.302,18.206-16.806v-17.506
		H480.856z M958.413,408.532c0,22.407-16.806,37.813-39.213,37.813c-5.602,0-10.504-0.7-15.405-2.801v31.511
		c0,2.101-2.101,4.201-4.201,4.201h-16.105c-2.101,0-4.201-2.101-4.201-4.201V363.718c0-2.801,2.101-4.901,4.201-5.602
		c10.504-3.502,21.007-5.603,32.211-5.603c25.208,0,42.714,15.405,42.714,39.213V408.532z M933.205,390.326
		c0-11.203-7.703-16.806-18.206-16.806c-6.303,0-10.504,2.102-10.504,2.102v46.215c4.201,2.101,6.303,2.801,11.204,2.801
		c10.503,0,18.206-6.302,18.206-16.806v-17.506H933.205z"/>
</g>
<path id="path36" fill="#FFFFFF" d="M300.921,358.347c0-4.901-4.202-9.104-9.103-9.104h-16.806L236.5,305.129
	c-3.501-4.201-9.103-5.602-14.705-4.201l-13.305,4.201c-2.101,0.7-2.801,3.501-1.4,4.901l42.014,39.914h-63.721
	c-2.101,0-3.501,1.4-3.501,3.501v7.002c0,4.901,4.201,9.104,9.103,9.104h9.803v33.61c0,25.209,13.304,39.913,35.711,39.913
	c7.002,0,12.604-0.7,19.606-3.501v22.407c0,6.303,4.902,11.204,11.204,11.204h9.803c2.101,0,4.202-2.101,4.202-4.201V368.85h16.105
	c2.101,0,3.501-1.4,3.501-3.501V358.347z M256.106,418.567c-4.201,2.101-9.803,2.801-14.004,2.801
	c-11.204,0-16.806-5.602-16.806-18.206v-33.61h30.81V418.567z"/>
</svg>
