<?xml version="1.0" encoding="utf-8"?>
<!-- Generator: Adobe Illustrator 16.0.0, SVG Export Plug-In . SVG Version: 6.00 Build 0)  -->
<!DOCTYPE svg PUBLIC "-//W3C//DTD SVG 1.1//EN" "http://www.w3.org/Graphics/SVG/1.1/DTD/svg11.dtd">
<svg version="1.1"
	 id="Layer_1" shape-rendering="geometricPrecision" text-rendering="geometricPrecision" image-rendering="optimizeQuality"
	 xmlns="http://www.w3.org/2000/svg" xmlns:xlink="http://www.w3.org/1999/xlink" x="0px" y="0px" width="36.85px" height="22px"
	 viewBox="18.575 0 36.85 22" enable-background="new 18.575 0 36.85 22" xml:space="preserve">
<path fill="#3A3734" d="M23.52,14.474h0.206l-0.192,0.798c-0.029,0.117-0.023,0.208,0.016,0.267c0.04,0.059,0.111,0.088,0.218,0.088
	c0.104,0,0.192-0.029,0.261-0.088c0.068-0.059,0.114-0.149,0.143-0.267l0.192-0.798h0.208l-0.195,0.817
	c-0.042,0.176-0.117,0.309-0.228,0.396c-0.107,0.088-0.25,0.134-0.426,0.134s-0.296-0.042-0.361-0.13
	c-0.065-0.088-0.078-0.222-0.036-0.397L23.52,14.474L23.52,14.474z M48.229,15.785l0.313-1.312h0.713l-0.042,0.183h-0.505
	l-0.078,0.328h0.505l-0.046,0.186h-0.504l-0.102,0.424h0.505l-0.046,0.191H48.229L48.229,15.785z M48.209,14.793
	c-0.045-0.053-0.101-0.092-0.159-0.114c-0.06-0.026-0.124-0.039-0.198-0.039c-0.141,0-0.264,0.046-0.375,0.137
	s-0.182,0.212-0.219,0.358c-0.031,0.14-0.02,0.257,0.047,0.352c0.061,0.091,0.158,0.137,0.289,0.137c0.074,0,0.15-0.014,0.225-0.043
	c0.074-0.025,0.15-0.068,0.229-0.123l-0.059,0.24c-0.066,0.043-0.135,0.072-0.206,0.092s-0.144,0.029-0.222,0.029
	c-0.098,0-0.186-0.017-0.26-0.049c-0.075-0.033-0.137-0.082-0.186-0.146c-0.049-0.063-0.078-0.137-0.092-0.222
	c-0.012-0.085-0.01-0.176,0.018-0.273c0.021-0.098,0.061-0.186,0.113-0.271c0.053-0.084,0.121-0.159,0.199-0.221
	c0.078-0.065,0.162-0.114,0.254-0.146c0.09-0.033,0.182-0.049,0.275-0.049c0.076,0,0.145,0.01,0.209,0.032
	c0.063,0.022,0.121,0.056,0.172,0.101L48.209,14.793z M46.184,15.268h0.355l-0.059-0.299c-0.004-0.02-0.007-0.043-0.007-0.065
	c-0.003-0.026-0.003-0.052-0.003-0.081c-0.014,0.029-0.026,0.055-0.043,0.081c-0.013,0.026-0.025,0.049-0.039,0.068L46.184,15.268
	L46.184,15.268z M46.637,15.785l-0.065-0.338h-0.508l-0.228,0.338h-0.219l0.944-1.363l0.293,1.363H46.637z M44.918,15.785
	l0.313-1.312h0.713L45.9,14.656h-0.504l-0.078,0.325h0.504l-0.045,0.186h-0.505l-0.146,0.615h-0.208V15.785L44.918,15.785z
	 M44.303,15.03h0.039c0.11,0,0.186-0.013,0.228-0.039s0.071-0.071,0.088-0.14c0.017-0.072,0.01-0.124-0.022-0.153
	c-0.033-0.029-0.102-0.046-0.205-0.046h-0.039L44.303,15.03L44.303,15.03z M44.25,15.196l-0.14,0.586h-0.195l0.313-1.312h0.29
	c0.084,0,0.149,0.006,0.191,0.016c0.046,0.01,0.082,0.029,0.107,0.056c0.033,0.032,0.053,0.071,0.063,0.124
	c0.01,0.049,0.006,0.104-0.007,0.166c-0.026,0.104-0.068,0.188-0.134,0.247c-0.064,0.059-0.146,0.095-0.244,0.107l0.297,0.596
	h-0.234l-0.283-0.586H44.25L44.25,15.196z M42.965,15.785l0.313-1.312h0.716l-0.042,0.183h-0.505l-0.078,0.328h0.505l-0.045,0.186
	h-0.506l-0.1,0.424h0.504l-0.046,0.191H42.965L42.965,15.785z M42.74,14.652l-0.271,1.13h-0.208l0.27-1.13h-0.338l0.042-0.182h0.886
	l-0.043,0.182H42.74L42.74,14.652z M40.621,15.785l0.325-1.363l0.618,0.801c0.017,0.022,0.033,0.045,0.049,0.071
	c0.017,0.026,0.033,0.056,0.053,0.088l0.218-0.908h0.192l-0.326,1.36l-0.631-0.816c-0.017-0.023-0.033-0.046-0.049-0.068
	c-0.017-0.026-0.029-0.049-0.039-0.078l-0.219,0.911h-0.191V15.785L40.621,15.785z M40.113,15.785l0.313-1.312h0.208l-0.313,1.312
	H40.113z M38.58,15.521l0.186-0.078c0.003,0.059,0.02,0.104,0.055,0.134c0.036,0.029,0.085,0.046,0.15,0.046
	c0.062,0,0.113-0.017,0.159-0.053c0.046-0.035,0.075-0.081,0.088-0.14c0.02-0.078-0.026-0.146-0.137-0.205
	c-0.017-0.01-0.026-0.017-0.036-0.02c-0.123-0.071-0.201-0.134-0.234-0.192c-0.032-0.059-0.039-0.127-0.02-0.208
	c0.026-0.107,0.082-0.192,0.17-0.261c0.088-0.064,0.186-0.101,0.303-0.101c0.094,0,0.169,0.02,0.225,0.056
	c0.055,0.035,0.084,0.091,0.094,0.159L39.4,14.744c-0.017-0.043-0.036-0.072-0.063-0.092c-0.025-0.02-0.059-0.029-0.098-0.029
	c-0.055,0-0.104,0.017-0.143,0.046s-0.065,0.068-0.078,0.12c-0.02,0.078,0.035,0.153,0.162,0.222c0.01,0.007,0.017,0.01,0.023,0.013
	c0.11,0.059,0.186,0.117,0.218,0.176s0.039,0.127,0.02,0.215c-0.029,0.124-0.091,0.222-0.186,0.297
	c-0.095,0.071-0.205,0.111-0.335,0.111c-0.107,0-0.192-0.027-0.251-0.079C38.605,15.691,38.576,15.616,38.58,15.521L38.58,15.521z
	 M38.361,14.652l-0.27,1.13h-0.209l0.271-1.13h-0.339l0.043-0.182h0.885L38.7,14.652H38.361z M36.242,15.785l0.326-1.363
	l0.619,0.801c0.016,0.022,0.032,0.045,0.049,0.071c0.016,0.026,0.032,0.056,0.052,0.088l0.219-0.908h0.191l-0.325,1.36l-0.632-0.816
	c-0.016-0.023-0.032-0.046-0.049-0.068c-0.016-0.026-0.029-0.049-0.039-0.078l-0.218,0.911h-0.192V15.785L36.242,15.785z
	 M35.292,15.785l0.313-1.312h0.713l-0.042,0.183H35.77l-0.078,0.328h0.505l-0.046,0.186h-0.504l-0.101,0.424h0.505l-0.046,0.191
	H35.292L35.292,15.785z M34.947,15.138c0-0.01,0.003-0.039,0.01-0.085c0.003-0.039,0.006-0.068,0.01-0.094
	c-0.013,0.029-0.026,0.059-0.042,0.091c-0.016,0.029-0.036,0.062-0.059,0.091l-0.501,0.7l-0.163-0.713
	c-0.006-0.029-0.013-0.059-0.016-0.085c-0.003-0.025-0.007-0.055-0.007-0.081c-0.006,0.026-0.016,0.056-0.026,0.088
	c-0.01,0.029-0.023,0.062-0.039,0.095l-0.293,0.645h-0.192l0.628-1.367l0.179,0.826c0.003,0.014,0.006,0.036,0.01,0.065
	s0.01,0.068,0.017,0.114c0.022-0.039,0.052-0.085,0.091-0.144c0.01-0.017,0.02-0.026,0.023-0.036l0.566-0.826l-0.02,1.367h-0.192
	L34.947,15.138L34.947,15.138z M32.964,15.785l0.143-0.599l-0.26-0.71h0.218l0.163,0.446c0.003,0.013,0.007,0.026,0.013,0.046
	s0.01,0.039,0.016,0.059c0.013-0.02,0.026-0.039,0.039-0.059c0.013-0.02,0.026-0.036,0.039-0.053l0.381-0.439h0.208l-0.608,0.707
	l-0.144,0.599h-0.208L32.964,15.785L32.964,15.785z M31.997,15.268h0.355l-0.059-0.299c-0.003-0.02-0.006-0.043-0.006-0.065
	c-0.003-0.026-0.003-0.052-0.003-0.081c-0.013,0.029-0.026,0.055-0.042,0.081c-0.013,0.026-0.026,0.049-0.039,0.068L31.997,15.268
	L31.997,15.268z M32.446,15.785l-0.065-0.338h-0.508l-0.228,0.338h-0.218l0.944-1.363l0.293,1.363H32.446z M31.141,15.021h0.052
	c0.114,0,0.195-0.013,0.241-0.039s0.075-0.071,0.091-0.137c0.016-0.068,0.006-0.12-0.026-0.146
	c-0.036-0.029-0.107-0.042-0.215-0.042h-0.052L31.141,15.021L31.141,15.021z M31.086,15.196l-0.14,0.589H30.75l0.313-1.312h0.316
	c0.094,0,0.159,0.007,0.202,0.017s0.075,0.025,0.101,0.052c0.032,0.029,0.055,0.071,0.065,0.124c0.01,0.052,0.006,0.107-0.006,0.169
	c-0.017,0.062-0.039,0.12-0.075,0.173c-0.036,0.052-0.078,0.094-0.124,0.123c-0.039,0.023-0.082,0.043-0.127,0.053
	s-0.117,0.016-0.208,0.016h-0.12V15.196L31.086,15.196z M29.142,15.59h0.176c0.095,0,0.169-0.006,0.222-0.02
	c0.052-0.013,0.098-0.035,0.14-0.064c0.059-0.043,0.107-0.095,0.146-0.16c0.039-0.062,0.068-0.137,0.087-0.221
	c0.02-0.085,0.026-0.156,0.017-0.219c-0.01-0.062-0.033-0.117-0.072-0.159c-0.029-0.032-0.065-0.052-0.114-0.065
	c-0.049-0.013-0.124-0.02-0.231-0.02h-0.149L29.142,15.59L29.142,15.59z M28.888,15.785l0.313-1.312h0.28
	c0.182,0,0.309,0.01,0.377,0.029s0.127,0.049,0.172,0.095c0.059,0.059,0.098,0.133,0.114,0.221c0.016,0.092,0.01,0.195-0.016,0.31
	c-0.03,0.117-0.072,0.218-0.13,0.31c-0.059,0.091-0.133,0.162-0.221,0.221c-0.065,0.046-0.137,0.075-0.215,0.095
	c-0.075,0.02-0.189,0.029-0.339,0.029h-0.335V15.785L28.888,15.785z M27.935,15.785l0.313-1.312h0.713l-0.042,0.183h-0.504
	l-0.078,0.328h0.504l-0.045,0.186h-0.505l-0.101,0.424h0.504l-0.045,0.191H27.935L27.935,15.785z M27.43,15.785l0.313-1.312h0.208
	l-0.313,1.312H27.43L27.43,15.785z M26.486,15.785l0.313-1.312h0.713l-0.042,0.183h-0.504l-0.078,0.325h0.504l-0.045,0.186H26.84
	l-0.146,0.615h-0.208V15.785L26.486,15.785z M25.981,15.785l0.313-1.312h0.208l-0.313,1.312H25.981L25.981,15.785z M24.542,15.785
	l0.325-1.363l0.619,0.801c0.016,0.022,0.033,0.045,0.049,0.071s0.033,0.056,0.052,0.088l0.218-0.908h0.192l-0.326,1.36l-0.631-0.816
	c-0.017-0.023-0.033-0.046-0.049-0.068c-0.017-0.026-0.029-0.049-0.039-0.078l-0.218,0.911h-0.192V15.785L24.542,15.785z"/>
<path fill="#716D6A" d="M44.439,13.331h-1.43l1.986-7.172h1.429L44.439,13.331z M32.563,12.881
	c-0.078,0.284-0.338,0.482-0.631,0.482h-7.367c-0.202,0-0.352-0.068-0.449-0.205s-0.121-0.307-0.062-0.508l1.797-6.472h1.429
	l-1.605,5.782h5.716l1.605-5.782h1.429L32.563,12.881L32.563,12.881z M43.697,6.384c-0.098-0.137-0.251-0.205-0.459-0.205h-7.852
	l-0.388,1.406h7.142l-0.416,1.501h-5.713V9.083h-1.429l-1.185,4.281h1.429l0.794-2.871h6.422c0.202,0,0.391-0.068,0.566-0.205
	s0.293-0.306,0.349-0.508l0.794-2.871C43.814,6.693,43.795,6.521,43.697,6.384L43.697,6.384z"/>
<path fill="#0E8635" d="M48.893,6.172l1.807,3.594L46.9,13.36l0.451-1.63l2.078-1.964L48.441,7.8L48.893,6.172z"/>
<path fill="#E97208" d="M47.623,6.172l1.807,3.594l-3.803,3.594L47.623,6.172z"/>
<path fill="#808080" d="M22.043,0h29.914c0.955,0,1.821,0.39,2.449,1.018c0.629,0.628,1.019,1.495,1.019,2.449v15.066
	c0,0.953-0.39,1.82-1.019,2.449C53.778,21.609,52.912,22,51.957,22H22.043c-0.954,0-1.821-0.391-2.449-1.018
	c-0.628-0.629-1.019-1.496-1.019-2.449V3.467c0-0.954,0.39-1.821,1.019-2.449C20.222,0.39,21.089,0,22.043,0L22.043,0z
	 M51.957,1.195H22.043c-0.625,0-1.192,0.256-1.604,0.668s-0.668,0.98-0.668,1.604v15.065c0,0.623,0.256,1.191,0.668,1.604
	s0.98,0.668,1.604,0.668h29.914c0.625,0,1.192-0.256,1.604-0.668s0.669-0.98,0.669-1.604V3.468c0-0.624-0.257-1.192-0.669-1.604
	S52.582,1.195,51.957,1.195L51.957,1.195z"/>
</svg>
